<svg xmlns="http://www.w3.org/2000/svg" viewBox="0 0 208.73 208.79"><defs><style>.cls-1{fill:#fff;}.cls-2{fill:#fefefe;}.cls-3{fill:#fdfdfd;}.cls-4{fill:#fcfcfc;}.cls-5{fill:#fbfbfb;}.cls-6{fill:#fafafa;}.cls-7{fill:#f8f8f8;}.cls-8{fill:#f9f9f9;}.cls-9{fill:#f4f4f4;}.cls-10{fill:#f7f7f7;}.cls-11{fill:#f6f6f6;}.cls-12{fill:#f3f3f3;}.cls-13{fill:#f1f1f1;}.cls-14{fill:#f0f0f0;}.cls-15{fill:#f2f2f2;}.cls-16{fill:#e2e2e2;}.cls-17{fill:#e5e5e5;}.cls-18{fill:#dedede;}.cls-19{fill:#212121;}.cls-20{fill:#232323;}.cls-21{fill:#141414;}.cls-22{fill:#252525;}.cls-23{fill:#2e2e2e;}.cls-24{fill:#d5d5d5;}.cls-25{fill:#272727;}.cls-26{fill:#ececec;}.cls-27{fill:#1c1c1c;}.cls-28{fill:#202020;}.cls-29{fill:#e6e6e6;}.cls-30{fill:#2a2a2a;}.cls-31{fill:#131313;}.cls-32{fill:#2b2b2b;}.cls-33{fill:#2c2c2c;}.cls-34{fill:#282828;}.cls-35{fill:#c2c2c2;}.cls-36{fill:#1b1b1b;}.cls-37{fill:#c9c9c9;}.cls-38{fill:#e4e4e4;}.cls-39{fill:#292929;}.cls-40{fill:#222;}.cls-41{fill:#262626;}.cls-42{fill:#242424;}.cls-43{fill:#313131;}.cls-44{fill:#3f3f3f;}.cls-45{fill:#070707;}.cls-46{fill:#111;}.cls-47{fill:#696969;}.cls-48{fill:#303030;}.cls-49{fill:#323232;}.cls-50{fill:#171717;}.cls-51{fill:#474747;}.cls-52{fill:#1a1a1a;}.cls-53{fill:#2d2d2d;}.cls-54{fill:#181818;}.cls-55{fill:#c7c7c7;}.cls-56{fill:#050505;}.cls-57{fill:#e1e1e1;}.cls-58{fill:#1e1e1e;}.cls-59{fill:#ababab;}.cls-60{fill:#333;}.cls-61{fill:#0b0b0b;}.cls-62{fill:#515151;}.cls-63{fill:#bababa;}.cls-64{fill:#151515;}.cls-65{fill:#9e9e9e;}.cls-66{fill:#101010;}.cls-67{fill:#3c3c3c;}.cls-68{fill:#c8c8c8;}.cls-69{fill:#5a5a5a;}.cls-70{fill:#424242;}.cls-71{fill:#5e5e5e;}.cls-72{fill:#9f9f9f;}.cls-73{fill:#040404;}.cls-74{fill:#828282;}.cls-75{fill:#060606;}.cls-76{fill:#aaa;}.cls-77{fill:#393939;}.cls-78{fill:#a1a1a1;}.cls-79{fill:#777;}.cls-80{fill:#888;}.cls-81{fill:#555;}.cls-82{fill:#d8d8d8;}.cls-83{fill:#e7e7e7;}.cls-84{fill:#cfcfcf;}.cls-85{fill:#363636;}.cls-86{fill:#494949;}.cls-87{fill:#010101;}.cls-88{fill:#7e7e7e;}.cls-89{fill:#cacaca;}.cls-90{fill:#6c6c6c;}.cls-91{fill:#737373;}.cls-92{fill:#909090;}.cls-93{fill:#848484;}.cls-94{fill:#0e0e0e;}.cls-95{fill:#080808;}.cls-96{fill:#e0e0e0;}.cls-97{fill:#161616;}.cls-98{fill:#090909;}.cls-99{fill:#818181;}.cls-100{fill:#3a3a3a;}.cls-101{fill:#030303;}.cls-102{fill:#4a4a4a;}.cls-103{fill:#404040;}.cls-104{fill:#8c8c8c;}.cls-105{fill:#e9e9e9;}.cls-106{fill:#7a7a7a;}.cls-107{fill:#0d0d0d;}.cls-108{fill:#d7d7d7;}.cls-109{fill:#bdbdbd;}.cls-110{fill:#373737;}.cls-111{fill:#4d4d4d;}.cls-112{fill:#0a0a0a;}.cls-113{fill:#8d8d8d;}.cls-114{fill:#b5b5b5;}.cls-115{fill:#1f1f1f;}.cls-116{fill:#717171;}.cls-117{fill:#444;}.cls-118{fill:#b1b1b1;}.cls-119{fill:#454545;}.cls-120{fill:#dcdcdc;}.cls-121{fill:#6d6d6d;}.cls-122{fill:#686868;}.cls-123{fill:#5d5d5d;}.cls-124{fill:#020202;}.cls-125{fill:#353535;}.cls-126{fill:#565656;}.cls-127{fill:#a3a3a3;}.cls-128{fill:#191919;}.cls-129{fill:#787878;}.cls-130{fill:#999;}.cls-131{fill:#878787;}.cls-132{fill:#3d3d3d;}.cls-133{fill:#707070;}.cls-134{fill:#949494;}.cls-135{fill:#afafaf;}.cls-136{fill:#535353;}.cls-137{fill:#797979;}.cls-138{fill:#eee;}.cls-139{fill:#757575;}.cls-140{fill:#b7b7b7;}.cls-141{fill:#545454;}.cls-142{fill:#4c4c4c;}.cls-143{fill:#505050;}.cls-144{fill:#cdcdcd;}.cls-145{fill:#6b6b6b;}.cls-146{fill:gray;}.cls-147{fill:#343434;}.cls-148{fill:#ddd;}.cls-149{fill:#383838;}.cls-150{fill:#6e6e6e;}.cls-151{fill:#dfdfdf;}.cls-152{fill:#484848;}.cls-153{fill:#525252;}.cls-154{fill:#575757;}.cls-155{fill:#b0b0b0;}.cls-156{fill:#3e3e3e;}.cls-157{fill:#e8e8e8;}.cls-158{fill:#5f5f5f;}.cls-159{fill:#3b3b3b;}.cls-160{fill:#868686;}.cls-161{fill:#606060;}.cls-162{fill:#6f6f6f;}.cls-163{fill:#626262;}.cls-164{fill:#747474;}.cls-165{fill:#0c0c0c;}.cls-166{fill:#767676;}.cls-167{fill:#efefef;}.cls-168{fill:#cbcbcb;}.cls-169{fill:#ebebeb;}.cls-170{fill:#dadada;}.cls-171{fill:#7f7f7f;}.cls-172{fill:#919191;}</style></defs><g id="Camada_2" data-name="Camada 2"><g id="Camada_1-2" data-name="Camada 1"><path class="cls-1" d="M123.32,195.55c5.22-1.65,10.45-3.29,15.67-5l32.6-10.4c1-.31,2-.6,3-.95.45-.15.94-.25,1.19.15s-.34.6-.58.83c-2.06,1.94-4.79,2.55-7.28,3.59-11.79,4.91-23.62,9.73-35.43,14.58a1.57,1.57,0,0,0-.26.19,1.26,1.26,0,0,1-.58.39,3,3,0,0,1,.87-.13q5.25-1.64,10.49-3.29l18.62-6a2.28,2.28,0,0,1,.74-.1.45.45,0,0,1,.34.21c.09.15-.07.26-.18.33a13.51,13.51,0,0,1-3.34,2.11q-25.23,8-50.44,16.14c-.48.15-1,.12-1.45.5h-.22c-.73-1.28-.67-1.46.7-2l32.92-13.55,11.26-4.65c.15-.25.47-.26.66-.45a.19.19,0,0,0,.09,0c.09-.12.16.12.07,0s-.09,0-.16,0l-.27.17c-.26.14-.57-.1-.81.13q-9.72,3.07-19.45,6.16-20.29,6.47-40.6,13a3.62,3.62,0,0,1-.62.18c-.47,0-.85-.06-1-.59a.71.71,0,0,1,.54-1c2.57-1,5.14-2,7.71-3l33.7-13,19.05-7.38.7-.47c.32-.08.61-.25.93-.33.1,0,.2,0,.3,0-.1-.06-.19,0-.29,0a.49.49,0,0,1-.36-.18c1.69-2.58,4.56-3,7.17-3.83q11.74-3.78,23.54-7.49a2.86,2.86,0,0,1,.6-.21c.48-.06,1-.08,1.12.54a.87.87,0,0,1-.66,1.07c-1.45.53-2.88,1.12-4.32,1.68l-51.3,19.78c-1.81.7-3.59,1.44-5.39,2.16-.06.08-.21.2-.18.21C122.92,195.61,123.14,195.76,123.32,195.55Z"/><path class="cls-1" d="M80.35,10.77c-5.3,1.68-10.61,3.33-15.91,5Q53,19.45,41.49,23.15A1.16,1.16,0,0,1,40.27,23a27.14,27.14,0,0,1,7.31-4.71c6.34-3,12.62-6,18.93-9A2.4,2.4,0,0,1,67,8.87c-.19.25-.62,0-.92.18l-1.35.35c-.5.12-.7-.25-.89-.6s0-.62.29-.82a2.23,2.23,0,0,1,.67-.34L80.32,2.71c.52-.17,1-.13,1.18.36s0,1-.63,1.27C75.66,6.8,70.45,9.29,65.25,11.77l-9.78,4.7a2.5,2.5,0,0,1-.52.4c.26-.34.78.06,1.16-.21,6-1.92,12.1-3.82,18.15-5.75Q90.85,5.63,107.43.32c.21-.07.42-.1.62-.18.57-.22,1.15-.25,1.34.42s-.23.94-.82,1.18C102.51,4.14,96.46,6.58,90.4,9L57.63,22.09a3.71,3.71,0,0,1-.44.36c.32-.14.63,0,.91-.13L83,14.4l39-12.46a5.14,5.14,0,0,1,.83-.23c.48-.08,1-.11,1.16.48s-.13.92-.71,1.14c-3.15,1.18-6.3,2.39-9.45,3.59L82.91,18.72Q72,22.89,61.09,27c-.32.12-.76.53-.9-.18-.1-.51-.47-1.09.39-1.4,2-.73,4-1.52,6-2.29l21.59-8.29c.14-.22.4-.25.61-.35a4.37,4.37,0,0,1,.94-.33,1.12,1.12,0,0,0,.49-.26,2.22,2.22,0,0,1-.68.3,4.51,4.51,0,0,0-1,.35c-.27.14-.59-.1-.84.13-4.93,1.54-9.85,3.07-14.77,4.63L30.68,32.85c-.55.18-1.13.32-1.4-.32s.16-1,.78-1.28q15-6,30.08-12Q70.49,15.15,80.81,11a3.87,3.87,0,0,1,1.4-.64s.06,0,0,0a.65.65,0,0,1-.21.06A4.52,4.52,0,0,1,80.35,10.77Z"/><path class="cls-1" d="M138.29,111.2c-1,.32-2.09.63-3.13,1L124,115.73c.1-1,0-1.8,1.31-2.21,13.37-4.2,26.71-8.49,40.07-12.76L204,88.44c.62-.19,1.22-.43,1.84-.61s1.31-.55,1.64.33-.48,1.08-1.05,1.28c-3.14,1.13-6.3,2.21-9.44,3.31L133.82,115q-4.51,1.59-9,3.12c-.31.11-.83.61-1,.05s-.44-1.3.5-1.62c2.21-.76,4.4-1.55,6.6-2.33l7.37-2.63a9.16,9.16,0,0,1,2.61-1.12c.49-.13,1-.29,1.47-.43a1.77,1.77,0,0,0,.49-.2,5.66,5.66,0,0,1-.64.23c-.45.12-.88.28-1.33.38A8.44,8.44,0,0,1,138.29,111.2Z"/><path class="cls-1" d="M139.11,117.24c-4.7,1.48-9.39,3-14.09,4.43-.49.15-1.21.7-1.48-.09s.25-1.27,1.08-1.53q22.08-7,44.15-14.07l37.52-12a6,6,0,0,1,.82-.26c.47-.09,1-.1,1.17.46s-.09,1-.67,1.16c-2.33.8-4.66,1.62-7,2.44l-46.9,16.51c-8.38,3-16.78,5.9-25.16,8.88a3.67,3.67,0,0,1-3.34-.55l14.37-5.14a8.07,8.07,0,0,1,2.49-1.06.73.73,0,0,1,.29-.11.53.53,0,0,0-.3.09A12.36,12.36,0,0,1,139.11,117.24Z"/><path class="cls-1" d="M84.14,139.2l12.38-3.91c1.27-.39,2.56-.72,3.79-1.2,1-.4.94.49,1.19.92.42.7-.35.56-.59.64q-19.39,6.22-38.79,12.4l-42,13.42a5.2,5.2,0,0,0-1.14.34c-1,.62-1.29-.33-1.58-.86s.38-.47.68-.58q4.18-1.5,8.4-3l41.2-14.5c.35-.12.61-.42,1.08.11s1.06-.22,1.38-.62a2.48,2.48,0,0,1,1.21-.8Q85.17,136.7,99,131.79c1.25-.44,1,.72,1.55,1.25l-11.24,4c-1.82.65-3.64,1.32-5.45,2a3.68,3.68,0,0,1-1.58.66s-.07,0-.05,0a.7.7,0,0,1,.2-.08C83,139.54,83.53,139.15,84.14,139.2Z"/><path class="cls-1" d="M88.84,143.94l11.38-3.59c.93-.29,1.85-.6,2.78-.9a.75.75,0,0,1,1,.29c.55.76.44,1.07-.47,1.36q-26.67,8.47-53.32,17-13.78,4.4-27.57,8.81c-1,.32-1.19-.51-1.42-1s.45-.46.76-.57l47.17-16.66c10.76-3.79,21.51-7.61,32.28-11.38.36-.13.87-.67,1.28.1s.62,1-.44,1.39c-4.65,1.58-9.24,3.28-13.86,4.94a2.7,2.7,0,0,1-1.27.53,7.43,7.43,0,0,1-1.13.46c-.43.13-.86.3-1.3.41a6,6,0,0,1-1.3.43c-.34.12-.65.31-.84.27a5.7,5.7,0,0,0,1-.31,7.62,7.62,0,0,0,1.3-.43c.44-.13.88-.26,1.3-.42a6.73,6.73,0,0,0,1-.4A8.44,8.44,0,0,1,88.84,143.94Z"/><path class="cls-1" d="M90.14,149.8l16.1-5.09a2.58,2.58,0,0,1,1-.15c-1,.95-1.71,2.14-3.1,2.59L74,156.77l-46.95,15c-.65.2-1.19.5-1.7-.33-.38-.62-.33-.79.34-1,3.86-1.34,7.71-2.72,11.57-4.08q24.23-8.58,48.46-17.16l19.38-6.85c.47-.16,1-.5,1.44.11s.74.94-.32,1.3c-5.32,1.82-10.62,3.73-15.92,5.62-.2.07-.39.17-.59.26a2.44,2.44,0,0,1-1.08.53,7.47,7.47,0,0,0-1.12.4,4.22,4.22,0,0,0-1,.31,4.46,4.46,0,0,0-1.12.37,2,2,0,0,1-.93.21,2,2,0,0,0,.93-.19,5.19,5.19,0,0,1,1.26-.42c.29-.08.54-.29.86-.26a6.85,6.85,0,0,1,1.15-.41A5.74,5.74,0,0,1,90.14,149.8Z"/><path class="cls-1" d="M135.22,106c-3.17,1-6.34,2-9.52,3-.36.1-.93.72-1.15,0s-.32-1.33.73-1.66c6.84-2.13,13.66-4.34,20.48-6.52l40.49-13,18.61-5.93c.6-.19,1.27-.46,1.54.38.2.62-.22,1-.82,1.17q-6.3,2.19-12.59,4.41l-44.64,15.73q-11.61,4.1-23.25,8.15l-.51.15c-.28-1.62-.27-1.64,1.18-2.16l9.91-3.53a5.66,5.66,0,0,1,1.7-.72,5.16,5.16,0,0,1,.85-.33,1.65,1.65,0,0,0,.73-.23,6.35,6.35,0,0,1-1.1.33l-.7.29A5.66,5.66,0,0,1,135.22,106Z"/><path class="cls-1" d="M135.69,99.5c-3.36,1.07-6.72,2.15-10.09,3.19-.34.11-.79.6-1.12.06a1.31,1.31,0,0,1,.76-1.68l9.4-3q18.6-6,37.2-11.91l31.47-10,.31-.1c.54-.15,1.16-.28,1.36.41s-.23,1-.82,1.19c-1.25.42-2.5.88-3.75,1.32q-22.29,7.82-44.58,15.64l-28.09,9.92-3.21,1.13c-.39-1.29.06-1.83,1.26-2.24,3.4-1.16,6.83-2.24,10.15-3.64a10.49,10.49,0,0,1,2.3-.94,1.75,1.75,0,0,0,.83-.31,1.72,1.72,0,0,1-.84.29C137.36,98.94,136.63,99.59,135.69,99.5Z"/><path class="cls-1" d="M123.34,72.17l-9.86,3.07a4.91,4.91,0,0,1-.5.17,1.34,1.34,0,0,1-1.5-1c-.18-.47.57-.44.93-.55q14.09-4.55,28.19-9.06L183.79,51c2.45-.79,4.92-1.55,7.36-2.37a1,1,0,0,1,1.27.35c.48.64.35.89-.36,1.14-3.35,1.16-6.69,2.36-10,3.54l-54.6,19.22c-3.35,1.18-6.7,2.34-10,3.59a3.57,3.57,0,0,1-3.61-.51l10-3.61a3.5,3.5,0,0,1,1.1-.53,7.62,7.62,0,0,1,1.3-.36,4.43,4.43,0,0,1,1.25-.48c.29-.07.53-.25.82-.31s.46-.08.69-.16a.87.87,0,0,0,.24-.15c-.1,0-.17.1-.26.14-.27.09-.55.11-.81.2s-.52.24-.8.3a2.91,2.91,0,0,0-1.16.49,4.37,4.37,0,0,0-1.37.34C124.33,72.18,123.8,72,123.34,72.17Z"/><path class="cls-1" d="M120.07,67l-9.4,3c-1.31.4-.68-1-1.44-1.29l15.43-4.93L162,51.78c8.44-2.69,16.89-5.36,25.31-8.11,1.12-.37,1.24.45,1.6.94s-.25.38-.49.47l-8.91,3.16L139.38,62.43l-28.12,9.91c-.26.09-.73.47-.82-.19s-.56-1.13.44-1.47c2.92-1,5.81-2,8.72-3.06a5.08,5.08,0,0,0,.47-.23c.83-.78,2-.76,2.93-1.2.19-.09.41-.11.6-.19.64-.19,1.26-.43,1.91-.58a8.37,8.37,0,0,1,1.26-.48,4,4,0,0,0,1-.38.19.19,0,0,0,.09,0c.07-.12.19.09.07,0s-.22.1-.34.13c-.27.08-.53.18-.8.24-.43.23-.94.22-1.33.54a16.82,16.82,0,0,0-2,.56c-.3.07-.58.21-.87.3A10.51,10.51,0,0,1,120.07,67Z"/><path class="cls-1" d="M131.8,94.51c-2.16.66-4.31,1.33-6.47,2-.33.1-.81.65-1-.16-.12-.55-.47-1.13.5-1.43q9.83-3.08,19.62-6.23L186.35,75.3c5.17-1.65,10.36-3.27,15.52-4.93.65-.21,1.17-.28,1.43.41s-.35,1-.91,1.18q-23.25,8.15-46.49,16.31c-10.12,3.56-20.23,7.15-30.36,10.69-.26.09-.84.65-1,0-.11-.53-.49-1.27.6-1.61,2.46-.77,4.86-1.72,7.28-2.59.5-.57,1.27-.52,1.88-.84.61-.09,1.13-.51,1.76-.55.27-.11.53-.24.81-.33a1.89,1.89,0,0,0,.87-.27c.13,0,.11.15.08,0s0-.08,0-.07a.52.52,0,0,1-.18.1c-.32.23-.74.16-1.07.33a4,4,0,0,1-.85.31c-.61.15-1.16.45-1.76.61A11.15,11.15,0,0,1,131.8,94.51Z"/><path class="cls-1" d="M118.13,61.33c-2.84.87-5.69,1.74-8.52,2.64-.48.15-.87.41-1-.34-.1-.53-.41-1,.47-1.27,6.8-2.12,13.57-4.29,20.35-6.45q15.66-5,31.32-10c7.63-2.43,15.26-4.85,22.88-7.32,1-.32,1.17.51,1.39.95.3.59-.46.53-.78.64l-46,16.27L109.55,66.61l-.42.12c-.31-1.68-.31-1.65,1.24-2.2,2.8-1,5.6-2,8.4-3,.31-.41.84-.39,1.24-.61.46-.07.83-.41,1.3-.45.29,0,.52-.23.7-.23-.33.19-.84.17-1.27.39s-.76.26-1.12.44S118.6,61.12,118.13,61.33Z"/><path class="cls-1" d="M140.41,123.1l-6.87,2.1c-.08-1.69-.07-1.68,1.47-2.18l54.2-17.3L207,100c.07,0,.13-.07.19-.09.64-.2,1.25-.25,1.5.54s-.42.91-.9,1.08c-2.7,1-5.41,1.91-8.12,2.87q-21.45,7.57-42.9,15.15-13.09,4.62-26.21,9.21a1.51,1.51,0,0,1-1.17.1,18.38,18.38,0,0,1,6.68-3.84c1.66-.45,3.25-1.15,4.87-1.73a4.7,4.7,0,0,1,2.12-.92,5.69,5.69,0,0,1,.59-.16,3.3,3.3,0,0,0-.62.15A17.42,17.42,0,0,1,140.41,123.1Z"/><path class="cls-1" d="M145,127.89c-2.78.69-5.46,1.71-8.2,2.54a9.83,9.83,0,0,0-1.33.43c-1.44.64-2.83.82-4.13-.32a6.92,6.92,0,0,1,2.29-.86q24-7.67,48-15.3,12.74-4.06,25.47-8.16c.6-.19,1.3-.41,1.57.36s-.37,1-1,1.23l-39.58,14c-10.08,3.56-20.18,7.09-30.23,10.72-1.39.5-2.31,0-3.44-.55l10.6-3.86c.31-.46.91-.21,1.28-.52s.89-.24,1.3-.45.81-.23,1.2-.41c-.4.14-.79.28-1.2.38a8.3,8.3,0,0,1-1.27.44C145.94,127.87,145.45,127.79,145,127.89Z"/><path class="cls-1" d="M62,27.31l16.92-5.38,37.2-11.87L133.51,4.5c.35-.11.68-.28,1-.08a.82.82,0,0,1,.48.79c0,.48-.35.64-.75.79l-8,3L88.62,23l-16.13,6c-.2.07-.43.24-.6.2-2.24-.51-4,1.1-6,1.37-.68.1-1.35.06-2.06.12.13-.63.69-.46,1-.59q11.49-4.32,23-8.59c1.44-.54,2.87-1.11,4.3-1.66.43-.52,1.14-.41,1.66-.73a.68.68,0,0,1,.41-.14.61.61,0,0,0-.45.14,7.37,7.37,0,0,1-2.07.5L73.1,25.56,63,28.78c0-.66.14-1.36-.81-1.25C62,27.58,61.91,27.51,62,27.31Z"/><path class="cls-1" d="M115.69,55.88c-2.67.82-5.34,1.66-8,2.46-.37.11-.89.71-1.14-.26-.18-.7-.21-1.06.62-1.32q12.66-4,25.28-8l41.72-13.36c1.87-.6,3.76-1.17,5.63-1.79.94-.31,1.09.55,1.34,1s-.38.45-.67.55L130.88,52.7q-11.25,4-22.49,8c-.67.24-1,.17-1.26-.55s.24-.89.73-1.07l8.3-3A9.22,9.22,0,0,1,118.78,55c.51-.09,1-.29,1.48-.43a5.92,5.92,0,0,1,1.4-.47.62.62,0,0,0,.27-.09c-.07,0-.1,0-.14.05s0,0-.1,0a5.39,5.39,0,0,0-1.41.45,9.69,9.69,0,0,1-1.51.44A15.66,15.66,0,0,1,115.69,55.88Z"/><path class="cls-1" d="M97.11,166.39l14.33-4.53c1.44-.46,1.45-.45,1.94,1.11l-13.7,4.4L58.74,180.44q-9,2.85-17.88,5.75c-.63.2-1.17.23-1.43-.47s.37-1,.91-1.17l27.34-9.79,41-14.67c1.65-.59,1.74-.58,2.78.77l-14.36,5.22a2.15,2.15,0,0,1-1.07.49,4.5,4.5,0,0,0-.7.25c-.34.2-.75.2-1.2.45.45-.23.85-.24,1.19-.41a4.77,4.77,0,0,1,.82-.31C96.46,166.54,96.75,166.25,97.11,166.39Z"/><path class="cls-1" d="M94.08,154.8l7.27-2.26c1.42-.45,1.41-.46,2.1,1.05-2.34.75-4.67,1.52-7,2.26L44.55,172.4c-4.6,1.47-9.18,3-13.79,4.45-.33.1-.72.49-1.17,0-.7-.76-.58-1.2.6-1.62l12-4.21,34.24-12.15q12.4-4.41,24.82-8.8c.29-.1.84-.71,1,0,.14.54.58,1.24-.53,1.59-2.72.89-5.4,1.93-8.09,2.91a4.8,4.8,0,0,1-1.25.6c-.6.08-1.1.51-1.72.53-.18.09-.36.16-.54.23a3.34,3.34,0,0,0-1.06.41c-.06,0-.15,0-.19,0s-.17-.07-.07,0,.35,0,.51-.16.55-.19.84-.26a5.08,5.08,0,0,1,.85-.31c.6-.13,1.14-.43,1.73-.6C93.15,154.82,93.64,154.94,94.08,154.8Z"/><path class="cls-1" d="M132.59,88.12a29.82,29.82,0,0,0-4.7,1.31c-.23.06-.46.14-.89.28.59-1.2,1-2.14,2.32-2.55q22.26-7,44.51-14.15l25.91-8.29c.6-.2,1.17-.35,1.43.39s-.26,1-.87,1.21L145,85.74c-6.2,2.18-12.38,4.38-18.58,6.55-.32.12-.64.37-1,.24.42-1.82,1.79-2.46,3.41-2.87a26.29,26.29,0,0,0,2.94-1c.29-.12.76,0,.81-.53.55-.2,1.13-.26,1.66-.51.34-.11.7-.13,1-.27a3.65,3.65,0,0,1,1.4-.52c.31-.18.69-.21,1-.39l0,0-.06,0c-.29.19-.65.16-.92.37a3.69,3.69,0,0,0-1.44.53c-.45.15-.92.18-1.35.37S133,87.89,132.59,88.12Z"/><path class="cls-1" d="M95.38,160.65c3.34-1.05,6.7-2.05,10-3.2a2.27,2.27,0,0,1,3,.84l-4.65,1.49L48.43,177.44c-4.25,1.36-8.5,2.75-12.76,4.13l-.2.06c-.58.17-1.18.28-1.42-.48s.35-.94.86-1.12c2.08-.76,4.17-1.5,6.26-2.24l39.29-14c7.83-2.78,15.67-5.55,23.48-8.4,1.18-.43,1.49.4,2.2,1l-11.21,4c-.49.45-1.17.47-1.71.81a.36.36,0,0,1-.3.07s0,0,0,0a.75.75,0,0,0,.37-.2A7.09,7.09,0,0,1,95.38,160.65Z"/><path class="cls-1" d="M127.44,77.11c-1.41.43-2.85.75-4.21,1.31a4.29,4.29,0,0,1-3.56-.21c-.15-.09-.37-.13-.23-.39L181,58.17q6.72-2.14,13.43-4.32c.47-.15.93-.29,1.33.07s.16,1.21-.6,1.47l-19.08,6.72L136,76.26c-3.32,1.17-6.65,2.29-9.93,3.54-1.32.5-2.32,0-3.44-.57l5-1.87a8.3,8.3,0,0,1,2.34-.93,4.38,4.38,0,0,1,.86-.3.88.88,0,0,1,.27-.06,1.17,1.17,0,0,0-.45.09,6,6,0,0,0-.84.31C129,76.59,128.3,77.17,127.44,77.11Z"/><path class="cls-1" d="M112.49,186.46c2.76-.86,5.53-1.71,8.29-2.59q7.59-2.4,15.16-4.86c1.06-.34,1.53.55,2.54.92-1,.33-1.67.59-2.4.82l-50.1,16c-5.44,1.74-10.87,3.52-16.31,5.25-.63.2-1.5.76-1.83-.3s.7-1.11,1.32-1.34c7.26-2.69,14.54-5.35,21.8-8q20.54-7.59,41.06-15.21a2.66,2.66,0,0,1,3,.71l-6.74,2.5-15.56,5.74a1.23,1.23,0,0,0-.25.17c-.24.32-.64.26-.94.41,0,0-.07,0,0,0s.1-.07.16-.1C112,186.58,112.21,186.44,112.49,186.46Z"/><path class="cls-1" d="M109.94,181.06c6.13-1.94,12.26-3.85,18.37-5.84a2.78,2.78,0,0,1,3.22.75l-15.69,5-38.6,12.35c-5.47,1.75-10.94,3.47-16.4,5.23-.7.22-1.31.39-1.58-.47s.56-1,1.07-1.16c5.25-1.94,10.5-3.85,15.76-5.77l44.66-16.28a23.37,23.37,0,0,0,2.61-1,3,3,0,0,1,3.6.35c-.13.34-.53.34-.84.45l-15.87,5.78c-.27.1-.53.23-.79.35a5.93,5.93,0,0,1-2.45.94c-.26,0-.44.24-.71.3.28,0,.46-.25.7-.29A23,23,0,0,1,109.94,181.06Z"/><path class="cls-1" d="M102.55,170.86q6.21-2,12.43-3.91c.36-.12.75-.42,1.13-.15s.85.62.85,1.07-.61.38-.95.48q-24.08,7.71-48.16,15.38l-20.93,6.68c-.11,0-.19.12-.29.13-.54.1-1.16.27-1.35-.46s.31-1,.86-1.17l3.45-1.22,34.29-12.32q14.73-5.3,29.47-10.57c.35-.12.72-.53,1.18-.1.8.74.73,1.2-.3,1.57l-12.14,4.38a4.94,4.94,0,0,1-1.52.72c-.43.13-.84.29-1.27.4-.12,0-.26,0-.34.16a1.65,1.65,0,0,1,.52-.2c.43-.13.87-.25,1.29-.42A5,5,0,0,1,102.55,170.86Z"/><path class="cls-1" d="M114.39,50l-8.11,2.5-.41.09c-.21-1.59-.21-1.6,1.55-2.16l67.49-21.56c.61-.2,1.43-.71,1.75.25s-.6,1.13-1.28,1.37L129.87,46.69l-23.11,8.22c-.2.07-.42.12-.62.17-.46-1.57-.46-1.56,1-2.09,2.57-.92,5.12-1.85,7.68-2.78a3.49,3.49,0,0,1,1.55-.61,4.07,4.07,0,0,1,1.25-.49c.28-.07.52-.24.81-.31a2,2,0,0,1,.68-.17.66.66,0,0,0,.26-.14c-.1,0-.17.1-.26.13a2.26,2.26,0,0,0-.81.21c-.27.08-.52.24-.8.3a3,3,0,0,0-1.18.5C115.68,49.66,115.08,50.06,114.39,50Z"/><path class="cls-1" d="M107.29,175.61l10-3.13,2.16-.66c2-.61,2-.61,3.91.48l-7.61,2.45L79.57,186.29q-12.91,4.14-25.85,8.28c-.58.18-1.42.72-1.74-.28s.6-1.11,1.25-1.35l46.34-16.79c5.9-2.14,11.81-4.22,17.69-6.42,1.2-.45,1.79.23,2.67.85-2.89,1-5.68,2-8.46,3.07l-4.62,1.73c-.34.37-.84.34-1.26.53a3.37,3.37,0,0,1-1.11.45,7.4,7.4,0,0,0-1.11.41l-1,.29a.92.92,0,0,1-.28.09c.16,0,.28-.09.42-.12.29-.07.56-.18.84-.24a12.3,12.3,0,0,1,1.27-.49,4.5,4.5,0,0,0,1.3-.42C106.35,175.56,106.87,175.8,107.29,175.61Z"/><path class="cls-1" d="M118.62,190.82c7.42-2.35,14.84-4.73,22.28-7,1.52-.47,3-1.29,4.65-1.15.39,0,.78.11,1.17.17.39.31,1-.27,1.31.39q-7.23,2.32-14.47,4.65L94.18,200.45l-15.09,4.82c-.57.18-1.16.38-1.45-.34s.32-1.06.92-1.28l26.16-9.83q16.82-6.33,33.62-12.68a2.29,2.29,0,0,1,2.58.28c.06.15.33.23.18.47l-17.46,6.59c-1.84.69-3.67,1.4-5.51,2.11a3.15,3.15,0,0,1-1.5.7c-.29.08-.54.25-.83.32l-.27,0a1.18,1.18,0,0,0,.45-.1c.29-.09.55-.25.85-.32A6.48,6.48,0,0,1,118.62,190.82Z"/><path class="cls-1" d="M74.33,29.69l27.41-8.76L139.9,8.72c1-.33,2-.65,3.07-1,.61-.2,1.18-.27,1.4.49s-.34.94-.86,1.13l-7.57,2.77L93.73,27.64c-4.17,1.54-8.37,3-12.51,4.64-1.22.48-1.93-.19-3-.72L85.06,29l11.8-4.39c.43-.53,1.11-.47,1.67-.69a1.27,1.27,0,0,1,.43-.18.77.77,0,0,0-.47.17,15.3,15.3,0,0,1-2.08.49L81.68,29.08c-1.61.51-3.22,1-4.8,1.55-1.06.36-1.84-.37-2.76-.56C74,29.83,74.2,29.78,74.33,29.69Z"/><path class="cls-1" d="M103.79,34.64C100,35.85,96.1,37,92.29,38.3a2.84,2.84,0,0,1-3.46-.69l6.7-2.14,51.34-16.39,11.18-3.59c.6-.2,1.2-.32,1.44.41s-.34,1-.91,1.22l-34.3,12.34c-9.86,3.55-19.73,7.06-29.56,10.7-1.29.47-2,0-3-.7l12.53-4.6a2.58,2.58,0,0,1,1.36-.67s.06,0,.05,0a.59.59,0,0,1-.2.06A6.88,6.88,0,0,1,103.79,34.64Z"/><path class="cls-1" d="M100.55,29.41c-3.16,1-6.32,1.94-9.47,2.93-2,.61-3.93,1.15-5.82,1.91-1.3.53-2.15.09-3.11-.79l12.14-3.89L126.77,19.2l24-7.68a2.8,2.8,0,0,1,1-.17.75.75,0,0,1,.7.71c.06.58-.38.82-.83,1-2,.73-4,1.43-6,2.16l-41.15,15c-5.57,2-11.14,4-16.69,6.08-1.12.42-1.63-.4-2.61-.81l15.63-5.77c.23-.43.69-.39,1.06-.55s.59-.11.85-.28c.43-.1.81-.33,1.24-.42.07,0,.16,0,.23-.08a2.77,2.77,0,0,0-.41.12c-.43.12-.82.32-1.24.44-.26.13-.58.1-.83.27C101.3,29.19,101,29.47,100.55,29.41Z"/><path class="cls-1" d="M98.24,43.41l10.27-3.69c-.47-.4-.92-.15-1.33,0-2.84.89-5.69,1.75-8.48,2.77a2.81,2.81,0,0,1-3.19-.75c1.69-.56,3.29-1.1,4.89-1.61L145,25.86l19.24-6.17a3.25,3.25,0,0,0,.42-.11c.57-.23,1-.1,1.21.5s-.18.89-.64,1.07c-1,.38-1.95.72-2.93,1.07l-56.1,20.07c-1.72.62-3.47,1.19-5.14,1.92C99.86,44.75,99.07,44.33,98.24,43.41Z"/><path class="cls-1" d="M102.93,45.67c3.57-1.16,7.13-2.34,10.7-3.48l43.56-13.92c4.3-1.37,8.6-2.72,12.89-4.12.7-.23,1.23-.23,1.47.52s-.42.89-.9,1.06L127.79,41c-7.16,2.55-14.31,5.13-21.48,7.67-.62.22-1.51,1-1.74-.48,0-.15-.21-.27-.41-.51,2.7-1,5.32-1.89,7.94-2.84.35-.13.79-.12,1-.51a3.86,3.86,0,0,1,.8-.3.77.77,0,0,1,.27-.08c-.14,0-.25.07-.38.1s-.44.14-.66.2a29.78,29.78,0,0,0-4.63,1.31,39.17,39.17,0,0,0-4,1.3c-.75.28-1.24.17-1.59-.55C102.46,46.12,102.74,45.89,102.93,45.67Z"/><path class="cls-1" d="M130.21,82.54c-.71.06-.71.06-2.13-1.13l9-2.89L175,66.39l22.24-7.12c.68-.22,1.27-.24,1.51.49s-.46.94-1,1.13q-15.53,5.46-31.07,10.91L130.14,84.68c-.13,0-.27,0-.6.11.55-.68-.31-1.75.93-2a1.1,1.1,0,0,1,.82-.46s.06,0,0,0l-.18.07C130.83,82.39,130.53,82.5,130.21,82.54Z"/><path class="cls-1" d="M145.59,133.93a18.86,18.86,0,0,0-2.35.74,3.57,3.57,0,0,1-3.85-.53c2.45-.8,4.8-1.57,7.16-2.32l39-12.44q10.68-3.41,21.35-6.84c.64-.2,1.24-.3,1.46.53s-.37.9-.9,1.09l-14.21,5L149,134.88a25.64,25.64,0,0,0-2.62,1,3.26,3.26,0,0,1-3.85-.34c1-.64,2.31-.77,3.39-1.35,0-.09.24-.1.12-.22A.4.4,0,0,0,145.59,133.93Z"/><path class="cls-1" d="M150.21,138.69c-1,.2-1.76-.45-2.8-.89l11.2-3.6L206,119.06c.57-.18,1.3-.5,1.58.29s-.41,1.11-1.05,1.33l-44.4,15.8c-2.64.94-5.27,1.89-7.91,2.82a4.75,4.75,0,0,1-3.95-.29C150.18,138.91,150.68,138.74,150.21,138.69Z"/><path class="cls-1" d="M64.94,134.59,56,137.44,12.89,151.22l-.42.13c-.58.22-1.21.32-1.43-.42s.31-1,.93-1.18q24.4-8.58,48.79-17.19c.2-.07.41-.11.62-.18,2.26-.77,2.26-.77,3.23,1.43C64.71,134,64.81,134.27,64.94,134.59Z"/><path class="cls-1" d="M67.68,139.77c-.16.4-.51.39-.8.48L55,144.05,15.64,156.61c-.6.19-1.43.74-1.77-.21s.57-1.14,1.25-1.38l43.93-15.46c2-.71,4.07-1.41,6.09-2.17.55-.22.82-.15,1.13.36C66.69,138.45,67.21,139.1,67.68,139.77Z"/><path class="cls-1" d="M9.4,146.12a.86.86,0,0,1-.92-.54.68.68,0,0,1,.33-.92,4.29,4.29,0,0,1,1-.43q24.85-8.78,49.72-17.55c.76-.27,1.33-.36,1.61.6.2.71,1.25,1.25.92,1.91-.24.45-1.27.5-1.95.72l-31.2,10-18.83,6Z"/><path class="cls-1" d="M5.35,134.83c-.45,0-.79-.2-.88-.67s.19-.86.7-1l5.37-1.91L42.4,120.06c3.89-1.37,7.79-2.73,11.67-4.12.63-.23.91-.15,1.24.47,1.13,2.15,1.16,2.11-1.12,2.84q-23.92,7.62-47.84,15.28Z"/><path class="cls-1" d="M58,124.32l-43.73,14-6.45,2.08c-.59.19-1.2.3-1.45-.42s.36-1,.92-1.19l49.2-17.29c.35-.12.8-.53,1.07-.22s-.08.8-.33,1.14C56.43,123.44,57.58,123.71,58,124.32Z"/><path class="cls-1" d="M3.83,129c-.56.05-.93-.15-1-.6s.28-.88.83-1.07c2.37-.81,4.73-1.67,7.1-2.5l37.73-13.29c1-.34,2-.64,2.93-1,.54-.23.8-.16,1.1.36,1.29,2.16,1.31,2.15-1.07,2.91L4.87,128.76C4.5,128.88,4.11,129,3.83,129Z"/><path class="cls-1" d="M2.56,123.28c-.42-.07-.83-.11-.89-.64a.88.88,0,0,1,.69-1c2.64-.92,5.27-1.86,7.9-2.79l37.82-13.32c1.41-.5,1.4-.51,2.06.83s.74,1.51-1,2L3.26,123.06Z"/><path class="cls-1" d="M1.52,117.25c-.37,0-.72-.16-.78-.6a1,1,0,0,1,.74-1.12c1.8-.62,3.58-1.28,5.38-1.91l36.72-12.94a5.26,5.26,0,0,1,4.05.76c.51.56.68.93-.29,1.23q-9.73,3.06-19.44,6.18L2.56,117Z"/><path class="cls-1" d="M160.39,139.91l30.84-9.85,13.5-4.33c.1,0,.2-.09.3-.12.56-.15,1.14-.22,1.33.49s-.26,1-.84,1.15c-4.09,1.44-8.18,2.91-12.26,4.37l-27,9.69a2,2,0,0,1-1.93-.08,12.07,12.07,0,0,0-3.2-.95C160.86,140.21,160.6,140.21,160.39,139.91Z"/><path class="cls-1" d="M44.66,96.54c.17.92-.4.86-.71,1-3.48,1.13-7,2.22-10.45,3.33L1.79,111a3.45,3.45,0,0,1-.63.17.76.76,0,0,1-.92-.57A.94.94,0,0,1,1,109.46c2.88-1,5.74-2,8.62-3L42.27,94.93c.52-.18,1.14-.72,1.54-.37A3.82,3.82,0,0,1,44.66,96.54Z"/><path class="cls-1" d="M30.68,57.91c-.72,0-1.3-.36-1.92-.22a1.44,1.44,0,0,0-.68.29c-2.17,2.14-5.18,2.3-7.83,3.26-3.46,1.25-7,2.26-10.52,3.39-.57.18-1.18.42-1.47-.34s.36-1.06.94-1.27L36.69,53c3-1.08,5.94-2.13,8.9-3.23,1.82-.68,3.29,0,4.71,1,.61.42.41.71-.19.9l-6.28,2L31.41,57.69Z"/><path class="cls-1" d="M42.12,91.83l-16.4,5.26L1.51,104.81a1.34,1.34,0,0,1-.94.11.89.89,0,0,1-.57-.73c0-.46.28-.7.69-.85,1.75-.62,3.5-1.27,5.26-1.89q16.93-6,33.89-12c.69-.24,1.21-.47,1.42.58A7.82,7.82,0,0,0,42.12,91.83Z"/><path class="cls-1" d="M38,83.79c.2-.12.31,0,.41.19l.21.38c1.07,2,1.06,1.94-1,2.62L2.22,98.26a6,6,0,0,0-.72.22A.8.8,0,0,1,.3,98c-.24-.63.15-.91.69-1.1L9.1,94,37.4,84Z"/><path class="cls-1" d="M204.66,133.3c0,.5-.42.66-.89.82l-16,5.73c-5.94,2.14-11.9,4.25-17.81,6.45-.88.32-1.32-.12-1.9-.48s-.45-1.11-.59-1.67c-.08-.32.41-.33.65-.41l23.73-7.58,11.29-3.62C204.14,132.22,204.68,132.46,204.66,133.3Z"/><path class="cls-1" d="M156.7,173.85c-.06-1.25.63-1.69,1.78-2,7.4-2.29,14.77-4.67,22.13-7.05a2,2,0,0,1,2.15.21c.33.27.8.62,1.26.27s-.06-.7-.15-1,0-.6.37-.58c1.95.08,3.4-1.36,5.21-1.7.58-.1,1.09-.27,1.34.41s-.3,1-.86,1.22l-12.57,4.73-20.72,7.81c-.19.07-.4.11-.74.2l.61-1.76C156.76,174.35,156.68,174.09,156.7,173.85Z"/><path class="cls-1" d="M36.81,81c-3,1-5.9,1.92-8.84,2.86L2.57,92c-.17,0-.33.13-.51.17-.52.14-1,.17-1.23-.47s.15-.92.73-1.12c1.72-.6,3.43-1.25,5.15-1.86q14-4.94,27.88-9.9c.76-.27,1.08-.17,1.36.55A16.77,16.77,0,0,0,36.81,81Z"/><path class="cls-1" d="M2.65,85.57c-.39,0-.72-.16-.77-.6a.91.91,0,0,1,.67-1.08c1.46-.51,2.91-1,4.36-1.56q12.3-4.38,24.6-8.77c.37-.13.87-.58,1.17-.19a8,8,0,0,1,1.08,2.1c.12.31-.39.32-.63.39Q28,77.53,22.92,79.14L3.59,85.31C3.28,85.41,3,85.49,2.65,85.57Z"/><path class="cls-1" d="M69.33,94.07c.35,1.41.35,1.42-1,1.87-6,1.92-12,3.81-18,5.75-.74.24-1.06.14-1.4-.56-1-2-1-2,1.14-2.72,6-2.08,11.9-4.19,17.86-6.27.27-.09.75-.56.83.08,0,.45.86,1-.08,1.43-.27.36-.69.38-1.07.52a7.68,7.68,0,0,1-.79.32c-.14,0-.08-.14-.11,0s-.08,0,0,0a1.12,1.12,0,0,0,.46-.14c.24-.09.47-.2.71-.28A2,2,0,0,1,69.33,94.07Z"/><path class="cls-1" d="M12.57,57.41c-.47.06-.69-.22-.86-.56A.64.64,0,0,1,12,56,5.42,5.42,0,0,1,13,55.5l27.24-10c.3-.11.62-.39.9-.17s0,.6,0,.91c0,1.55-.68,2.37-2.31,2.87-8.62,2.63-17.2,5.43-25.79,8.17C12.89,57.33,12.72,57.37,12.57,57.41Z"/><path class="cls-1" d="M154.34,161.94c-.65-.88-.37-1.22.65-1.54,6.08-1.89,12.15-3.85,18.21-5.83a2.3,2.3,0,0,1,2,.24c.55.33,1.13.79,1.12,1.37s-.8.45-1.25.62l-18.37,6.74c-1.44.52-1.56.44-1.94-1.16C154.71,162.16,154.41,162.17,154.34,161.94Z"/><path class="cls-1" d="M65.19,88.92a1.18,1.18,0,0,0,1.54.6c.39.22.32.43,0,.63L51.86,95c-1.46.47-2.92,1-4.38,1.44a.85.85,0,0,1-1.23-.51c-1-2.08-1-2,1.15-2.81l16.11-5.68c1.25-.45,1.67-.15,1.69,1.21a1.57,1.57,0,0,1-.75.4l-.18.06a1.29,1.29,0,0,0,.28-.08C64.78,89,65,88.69,65.19,88.92Z"/><path class="cls-1" d="M34.17,60.18C40.25,58,46.14,55.85,52,53.7a1.59,1.59,0,0,1,1.6.17,3.91,3.91,0,0,0,2,.85,2.17,2.17,0,0,0,2-.66c.28-.32.72-.71,1.09-.43a1.62,1.62,0,0,1,.43,1.17c0,.56-.58.46-.9.56-6.45,2.08-12.94,4.06-19.35,6.25C36.84,62.3,35.75,61.06,34.17,60.18Z"/><path class="cls-1" d="M70.84,100c.27,1.42.27,1.43-1.18,1.89-5.49,1.76-11,3.5-16.46,5.28-.73.23-1.12.2-1.47-.6-.9-2-.95-2,1.17-2.73,5.44-1.92,10.88-3.85,16.33-5.75.31-.11.77-.61,1-.07s.63,1,0,1.53a2.72,2.72,0,0,1-1,.53c-.24.13-.56.09-.76.34a2.42,2.42,0,0,0-.62.12c.26-.11.55,0,.75-.22s.6-.14.86-.32A1.55,1.55,0,0,1,70.84,100Z"/><path class="cls-1" d="M171.54,148.87l29.28-9.32c.46-.15.87-.36,1.28.07.57.58.37,1.11-.61,1.47l-9,3.27c-5.36,1.93-10.73,3.85-16.08,5.81a2.53,2.53,0,0,1-2.35-.09C173.33,149.66,172.53,149.34,171.54,148.87Z"/><path class="cls-1" d="M177.68,159.48c0,1-1.06,1.57-.39,2.55.11.16-.38.33-.65.43L161.53,168,157,169.7a8.74,8.74,0,0,0-.36-3c-.25-.55.15-.54.5-.65q8.39-2.67,16.76-5.37Z"/><path class="cls-1" d="M71.74,105.58c.85.09.51.81.62,1.25s-.36.46-.64.55l-16.08,5.15c-.47.15-.7.14-1-.37-1.26-2.3-1.28-2.27,1.13-3.12,5-1.75,10-3.51,15-5.25.32-.11.79-.65,1,.18.13.58.51,1.22-.49,1.4a3.87,3.87,0,0,1-1.48.69c-.25,0-.44.23-.69.25a8.25,8.25,0,0,0-1,.28,2.29,2.29,0,0,1-.28.09c.16,0,.28-.09.42-.13a8,8,0,0,1,.84-.23c.3-.06.56-.23.85-.3A5.69,5.69,0,0,1,71.74,105.58Z"/><path class="cls-1" d="M31,70.11c-.06.46-.46.36-.68.43-4.89,1.58-9.78,3.13-14.67,4.7-3.52,1.12-7,2.27-10.56,3.38-.32.1-.65.33-1,.15a.93.93,0,0,1-.6-.83c0-.54.44-.7.85-.84,2.39-.87,4.79-1.72,7.18-2.58,5.74-2.06,11.48-4.13,17.22-6.16.37-.13.83-.6,1.17-.17A13.79,13.79,0,0,1,31,70.11Z"/><path class="cls-1" d="M84.31,132.89c4.6-1.45,9.21-2.87,13.79-4.38,1-.31,1.1.07,1.22.83s-.4.69-.78.81c-4.47,1.44-9,2.86-13.42,4.29-5.09,1.62-10.19,3.23-15.27,4.89-.83.27-1.28.18-1.51-.68a3.07,3.07,0,0,0-.24-.48c-.86-1.58-.85-1.53.82-2.11.54-.18.67,0,.88.39a1.44,1.44,0,0,0,2,.64c1.14-.43,2.28-.83,3.43-1.24.56-.2.92-.92,1.66-.68a3.51,3.51,0,0,1,1.31-.51A6.45,6.45,0,0,0,80,134c.3-.1.62-.14.92-.25C82,133.51,83.08,132.85,84.31,132.89Z"/><path class="cls-1" d="M73,111.66c.37,1.47.37,1.47-1,1.91-4.46,1.42-8.92,2.82-13.37,4.27-.7.23-1.08.14-1.31-.57s-1.12-1.47-.82-2.07,1.31-.56,2-.81l13-4.54c.38-.13.89-.59,1.15-.22a1.28,1.28,0,0,1,0,1.6,4.11,4.11,0,0,1-1.36.63s0,0,0,0a.82.82,0,0,0,.19-.06C71.94,111.68,72.43,111.24,73,111.66Z"/><path class="cls-1" d="M152.15,156.9c-1,.18-1-.92-1.65-1.28l7.43-2.4,5.75-1.85c2.13-.7,3.53-.45,6.16,1.16l-14.31,5.19c-.71.25-1.41.51-2.13.75-.28.09-.66.44-.84.05s-.88-.75-.39-1.38a.68.68,0,0,1,.29-.24C152.36,156.8,152.25,157,152.15,156.9Z"/><path class="cls-1" d="M60,84.3c1-.25,1.56.41,2.26,1.09L53.5,88.21c-2.93.94-5.87,1.83-8.79,2.81-.71.25-1,.09-1.26-.56-.88-2-.91-2,1.06-2.66,4-1.4,8-2.76,12-4.22.71-.26.78.07.94.51s.41.66.86.65c.22-.07.5.09.67-.18A2,2,0,0,1,60,84.3Z"/><path class="cls-1" d="M40.16,42.36,17.45,49.62c-.59.18-1.19.36-1.42-.41s.34-1,.92-1.2q10.67-4,21.33-8c.54-.2.86-.33,1,.46A8.88,8.88,0,0,0,40.16,42.36Z"/><path class="cls-1" d="M74.3,117.53c.37,1.23-.2,1.7-1.35,2-3.9,1.16-7.77,2.43-11.64,3.69-.6.2-.91.1-1.16-.49s-.69-1.42-1.09-2.21c2.54-.89,5.07-1.77,7.59-2.67,1.92-.67,3.85-1.35,5.76-2,1.58-.57,1.63-.55,1.7,1.22-.22.29-.64.26-.86.5C73.58,117.38,73.93,117.13,74.3,117.53Z"/><path class="cls-2" d="M146.72,152.39c-1,.34-1.47-.42-2.11-1.14l6.8-2.17c1.74-.56,3.48-1.09,5.21-1.69a2.24,2.24,0,0,1,1.76.1c1.15.51,2.32,1,3.71,1.56-1.47.54-2.74,1-4,1.48q-4,1.44-8,2.87c-.52.19-1.08.48-1.59-.06-.17-.17-.31-.13-.54,0-.56.38-1,.13-1.4-.4l.64-.37c.44-.54,1.14-.43,1.7-.67a7.2,7.2,0,0,1,1.11-.46c.29-.06.52-.29.83-.25l.81-.27a.43.43,0,0,1,.17,0c-.12-.06-.19.06-.3.07s-.44.15-.67.22a3.53,3.53,0,0,0-.94.29c-.32.13-.64.22-.94.37A13.07,13.07,0,0,1,146.72,152.39Z"/><path class="cls-1" d="M6.41,71.93a.8.8,0,0,1-1-.6c-.16-.53.18-.86.68-1l5.55-2q6.83-2.47,13.66-4.92A1.84,1.84,0,0,1,28,64.69c.18.56-.3.46-.54.54-4.4,1.4-8.8,2.79-13.19,4.2-2.39.76-4.77,1.55-7.16,2.32Z"/><path class="cls-1" d="M56,81.08c-4.85,1.56-9.48,3-14.09,4.53-.7.23-1,.17-1.3-.54-.86-1.91-.9-1.88,1.07-2.58L51.63,79c.37-.13.73-.29,1.12,0C53.78,79.62,54.83,80.29,56,81.08Z"/><path class="cls-2" d="M58.29,59.81c.19,0,.48-.14.57-.06s-.06.41-.16.56c-1,1.5-2.54,2-4.14,2.46a34.65,34.65,0,0,1-4.72,1.07,6.92,6.92,0,0,1-5-1.29l14.54-5.22c.22,1.25-.15,2-1.36,2.3a1.34,1.34,0,0,1-.51.28,1.77,1.77,0,0,0-.56.29,2.1,2.1,0,0,1,.59-.28C57.8,59.77,58.07,60,58.29,59.81Z"/><path class="cls-2" d="M73.47,123.83a1.49,1.49,0,0,1-.62,2c-3,1-6,1.92-9,2.88-.28.09-.54.16-.72-.21-.36-.74-.75-1.47-1.15-2.2-.18-.31-.07-.44.23-.55l12.17-4.27c-.46.81,0,1.73-.93,2.11-.08.12-.23.17-.29.3A.6.6,0,0,1,73.47,123.83Z"/><path class="cls-2" d="M39.49,34.76c-.2.91-.26,1.69-1.41,2-5,1.5-9.91,3.13-14.87,4.72-.59.19-1.17.31-1.44-.43s.26-1,.79-1.15c5.26-2,10.52-4,15.77-6C39.32,33.55,39.24,34.32,39.49,34.76Z"/><path class="cls-2" d="M76.9,134.88c1.48-1.19,2.7-2.66,4.62-3.3,4.89-1.64,9.73-3.4,14.59-5.12,1.45-.51,1.45-.52,2.4.93L83.65,132.7a9.62,9.62,0,0,1-2.78,1.13,7.25,7.25,0,0,1-.91.26,6.76,6.76,0,0,1-1.79.66C77.75,134.8,77.35,135.12,76.9,134.88Z"/><path class="cls-2" d="M49.69,76.89l-10.87,3.5c-.41.13-.56-.07-.74-.39-1.17-2.06-1.17-2,1.11-2.85,2-.71,4.07-1.41,6.08-2.17a1.48,1.48,0,0,1,1.58.13C47.7,75.71,48.61,76.22,49.69,76.89Z"/><path class="cls-2" d="M186.45,152.66c-.61-.14-1.21-.25-1.8-.42-.32-.08-.62-.24-.9,0s-.14.53,0,.8.27.45,0,.56c-.49.21-.77-.27-1.13-.47s-.1-.3,0-.51c.8-1.39,2.18-1.78,3.59-2.21,3.77-1.16,7.51-2.4,11.27-3.61q.47-.15.93-.27a.79.79,0,0,1,1,.58.72.72,0,0,1-.48,1c-.49.21-1,.4-1.5.58l-10.2,3.73Z"/><path class="cls-2" d="M62.83,76.75c-.23-.07-.45.39-.65,0a.65.65,0,0,1,.14-.79,6.38,6.38,0,0,1,2.07-1.51q6.72-2.43,13.47-4.82c.3,1.19,0,1.78-1.07,2.15L65.43,75.87A3.36,3.36,0,0,1,62.83,76.75Z"/><path class="cls-2" d="M66.08,76.07,77,72.69c-.38,1.27-.81,2-2.08,2.41-3.21.9-6.39,1.93-9.52,3.05a2.71,2.71,0,0,1-2.55-.6c-.62-.39.33-.31.29-.58A7.29,7.29,0,0,1,66.08,76.07Z"/><path class="cls-2" d="M72.59,128.4a11.7,11.7,0,0,1-1.41,3.19c-1.05,1.76-3,1.91-4.7,2.51-.28.09-.39-.08-.5-.28l-1.17-2.06c-.19-.32-.25-.49.25-.66C67.53,130.26,70,129.35,72.59,128.4Z"/><path class="cls-2" d="M42.86,72.77,36.15,75c-.41.13-.62,0-.84-.4-1.07-2-1.08-2,1-2.73a3.11,3.11,0,0,0,.61-.2C39.27,70.15,41.12,71.1,42.86,72.77Z"/><path class="cls-2" d="M84.94,127.66a5.37,5.37,0,0,1,3.2-2.27,51.28,51.28,0,0,0,5.71-1.83,1.68,1.68,0,0,1,2.49,1l-10.7,3.33C85.35,128,85,128.2,84.94,127.66Z"/><path class="cls-3" d="M153.84,145.73l-12.45,4.45c-.11-1.55.05-1.83,1.37-2.27a34.15,34.15,0,0,1,8.37-2C152,145.79,152.78,145.13,153.84,145.73Z"/><path class="cls-2" d="M66.44,81.88c-.39-.08-.72.51-1.17,0-.75-.8-.69-1.18.33-1.54,2.64-.93,5.26-1.88,7.9-2.8.32-.11.74-.43,1-.08s-.22.56-.31.85a2.2,2.2,0,0,1-1.64,1.36c-1.66.58-3.3,1.2-5,1.8C67.32,82,66.85,81.84,66.44,81.88Z"/><path class="cls-3" d="M128.05,83.16c-3,1-6,1.93-8.92,2.84-.93.29-1-.75-1.6-1.23,2.82-.9,5.5-1.78,8.2-2.61C126.37,82,127.23,82.38,128.05,83.16Z"/><path class="cls-2" d="M119.21,86.73l8.7-3c.52-.19.69.06.6.52a1.6,1.6,0,0,1-1.08,1.44c-1.94.63-3.86,1.34-5.78,2C120.14,88.19,120.14,88.19,119.21,86.73Z"/><path class="cls-2" d="M187.81,158.34c-.12-2.09-.13-2.09,1.64-2.66,1.56-.51,3.13-1,4.71-1.49.54-.15,1.29-.51,1.56.35s-.38,1-1,1.26Z"/><path class="cls-3" d="M94.6,122.45,88,124.76c-.43.15-.66.32-.62-.51,0-1,.56-1.26,1.33-1.51,1.19-.38,2.36-.82,3.54-1.24C93.82,120.94,93.82,120.94,94.6,122.45Z"/><path class="cls-4" d="M122.81,80.91c-2.09.73-4.15,1.51-6.26,2.16-.83.26-1-.71-1.58-1.17,1.83-.65,3.53-1.28,5.24-1.85C121.17,79.73,121.9,80.48,122.81,80.91Z"/><path class="cls-4" d="M68.23,81.7,73,80.24C72.55,82,71.39,82.61,69.86,83s-2.76,1.27-3.79-.61c.11-.08.48,0,.66-.23C67.13,81.64,67.76,82,68.23,81.7Z"/><path class="cls-4" d="M113.26,79.92c3.12-1.5,4.09-1.57,6.36-.39-1.76.55-3.36,1.13-5,1.53C113.87,81.24,113.69,80.36,113.26,79.92Z"/><path class="cls-5" d="M137.56,138.94c-1.6.57-3.17,1.16-4.76,1.69-.79.26-.81-.52-1.06-.93-.36-.59.29-.55.52-.63C134,138.47,135.71,137.42,137.56,138.94Z"/><path class="cls-5" d="M92.49,119.58,87,121.3c.18-.3.29-.4.3-.51.3-2.36,2.46-2,3.9-2.51.72-.28.75.87,1.4,1.06Z"/><path class="cls-5" d="M36.36,68.61l-3,1a.48.48,0,0,1-.69-.29c-.16-.36-.38-.7-.51-1.07s-.62-.72-.16-1,.91-.64,1.5-.29C34.36,67.46,35.26,68,36.36,68.61Z"/><path class="cls-4" d="M91.34,77.61c1.21-.44,2.4-.89,3.61-1.29.87-.29.86.62,1.11,1s-.33.45-.59.56a16.93,16.93,0,0,0-1.6.59C92.72,79.12,92,78.75,91.34,77.61Z"/><path class="cls-4" d="M126.15,88.23a3.94,3.94,0,0,1-3.55,2.9c-.64,0-.85-.68-1-1.14s.39-.4.69-.5l1.94-.63Z"/><path class="cls-6" d="M90.89,76.24c.53-1.87,1.32-2.59,3-2.7.72-.05.65.73.92,1.13s-.23.41-.46.48C93.24,75.51,92.13,75.85,90.89,76.24Z"/><path class="cls-5" d="M100.16,82.43c-2.71,1.4-3,1.4-4.43,0a13.79,13.79,0,0,1,3-1.12C99.63,81,99.71,82,100.16,82.43Z"/><path class="cls-7" d="M93.33,80a21.57,21.57,0,0,1,3-1c.72-.11.79.86,1.47,1.24-1,.35-1.93.72-2.84.93S94,80.41,93.33,80Z"/><path class="cls-5" d="M89.57,116.13a1.6,1.6,0,0,1,1.16,1.14c.18.43-.47.35-.74.47-.55.24-1.13.42-1.7.63s-.94.42-1.15-.35c-.16-.61-.23-1.08.61-1.25A13.17,13.17,0,0,0,89.57,116.13Z"/><path class="cls-6" d="M105.8,94.86c2.17-1.19,2.81-1.17,4.21.13C107.82,96.27,107,96.25,105.8,94.86Z"/><path class="cls-8" d="M101.94,108.52a15.76,15.76,0,0,0,1.94-.64c1-.48,1.44.32,2.07.72.15.1.15.27-.06.42A3,3,0,0,1,101.94,108.52Z"/><path class="cls-6" d="M106.44,91.22a1.47,1.47,0,0,1,1.1,1c.18.68-.48.44-.75.59a10.29,10.29,0,0,1-1.1.4c-.52.23-.91.41-1.15-.41s0-1,.67-1.19A7.51,7.51,0,0,0,106.44,91.22Z"/><path class="cls-8" d="M177.76,162c.26-.82.49-1.49.68-2.18s.47-.91,1-.41,1.35.3,1.24,1.14-.92.68-1.44.94A10.6,10.6,0,0,1,177.76,162Z"/><path class="cls-6" d="M111.21,102.28c-.45,1.89-.9,2.25-3.36,2.81C109,102.88,109,102.88,111.21,102.28Z"/><path class="cls-8" d="M52.63,28.78a3.54,3.54,0,0,0-1.44,1.93c-.25.88-.63.84-1.19.31-.36-.34-.71-.69-1.12-1.1a35.56,35.56,0,0,1,3.75-1.39c.06.06.08.11.06.17S52.65,28.78,52.63,28.78Z"/><path class="cls-5" d="M91.48,98.24c-.55-.08-1-.19-1.15-.79s.35-.63.75-.82c.87-.42,1.58-.55,2.11.5.15.3.19.46-.11.57C92.54,97.9,92,98.07,91.48,98.24Z"/><path class="cls-8" d="M85.81,92.23c2.35-1,1.92-.93,3.26.4C86.76,93.93,86.58,93.58,85.81,92.23Z"/><path class="cls-9" d="M53.64,72l3.91-1.38C56.47,72.87,55.42,73.26,53.64,72Z"/><path class="cls-7" d="M107.51,72.85c-.29-1.36.84-1.35,1.46-1.45s.66.87.58,1.2c-.17.8-1.09.69-1.7.87S107.66,73,107.51,72.85Z"/><path class="cls-10" d="M86.29,114c.18-.87.91-.84,1.43-.87.67,0,.93.85.86,1.12-.23.77-1.15.73-1.77.8S86.68,114.25,86.29,114Z"/><path class="cls-11" d="M109,106.25c-1.07,2.82-1.24,2.47-3,1A21.25,21.25,0,0,1,109,106.25Z"/><path class="cls-11" d="M91.22,94.83c-1.29,1-2.12.22-3-.6C90.12,93.36,90.16,93.37,91.22,94.83Z"/><path class="cls-10" d="M96.53,102.67c-1.74.88-1.74.88-3.11-.34C94.41,101.43,94.9,101.48,96.53,102.67Z"/><path class="cls-10" d="M95.89,104.16a14.6,14.6,0,0,0,1.43-.43c.44-.18.83-.27,1.11.23a.83.83,0,0,1-.09,1.09,1,1,0,0,1-1.29.2A2.91,2.91,0,0,1,95.89,104.16Z"/><path class="cls-12" d="M104.71,110.83l2.87-1c-.39.87-.37,1.83-1.15,2.09S105.43,111.22,104.71,110.83Z"/><path class="cls-13" d="M111.81,77.28c-.08-.47,0-.81.47-.7.63.17,1.57.34,1.63.91s-1,.61-1.52.7C111.65,78.32,112,77.55,111.81,77.28Z"/><path class="cls-14" d="M108.56,69c.42.09.38.75.42,1.13.1.79-.75.52-1.15.74s-.39-.18-.35-.44C107.57,69.8,107.3,69,108.56,69Z"/><path class="cls-11" d="M98.69,84.48c.69-.23,1.25-.4,1.8-.6s.65.05.82.51c.31.85,0,1-.73.77A4.53,4.53,0,0,1,98.69,84.48Z"/><path class="cls-9" d="M110.18,98c-.33-.41-.91-.81-.93-1.22,0-.57.78-.49,1.19-.62s.39.48.47.77C111.06,97.44,110.57,97.63,110.18,98Z"/><path class="cls-15" d="M105.65,90.29c-.57,0-1.13.8-1.55.17-.22-.32-.42-1.21.17-1.4C105.12,88.78,105.16,89.85,105.65,90.29Z"/><path class="cls-16" d="M92.56,99c1.7-.65,1.81-.6,2.29,1.1A11.73,11.73,0,0,1,92.56,99Z"/><path class="cls-14" d="M86,111.63c.05-.28-.08-.63.35-.56.6.1,1.2.34,1.2,1s-.7.55-1,.54C85.89,112.63,86.2,111.93,86,111.63Z"/><path class="cls-17" d="M90.25,99.71c1.2-.46,1.78.48,2.69.72C91.64,101.49,91.14,100.3,90.25,99.71Z"/><path class="cls-18" d="M86.73,98.31c1.37-1.09,2.08,0,2.94.45l-.06.28Z"/><path class="cls-19" d="M80.83,133.77a8.94,8.94,0,0,1,2.82-1.07c.17.23.44.13.66.19a13,13,0,0,1-3.5,1s-.07-.07,0-.1S80.81,133.77,80.83,133.77Z"/><path class="cls-20" d="M120.07,67a8.37,8.37,0,0,1,2.62-.84c.14.08.34,0,.44.19a16.83,16.83,0,0,1-3.06,1.07Z"/><path class="cls-21" d="M66.08,76.07a12.73,12.73,0,0,1-2.95.9l-.3-.22,2.6-.88C65.59,76.11,65.86,76,66.08,76.07Z"/><path class="cls-22" d="M142.2,116.44a9.6,9.6,0,0,1-2.61,1l-.48-.23a19.32,19.32,0,0,1,3.09-1c.07.05.09.1.07.15S142.23,116.44,142.2,116.44Z"/><path class="cls-23" d="M118.79,55.12l-2.63,1-.47-.2a13.41,13.41,0,0,1,3.09-1.05A.17.17,0,0,1,118.79,55.12Z"/><path class="cls-13" d="M124.74,91.27a5.52,5.52,0,0,1-1.25,1.11c-.34.19-.45,0-.57-.26s-.07-.37.21-.45A3.89,3.89,0,0,1,124.74,91.27Z"/><path class="cls-19" d="M106.84,181.7l2.62-.86.48.22a9.17,9.17,0,0,1-3.07.88c-.07-.05-.1-.1-.08-.15S106.82,181.7,106.84,181.7Z"/><path class="cls-24" d="M52.68,69.57c-.76.38-1.5.88-2.44.09a5.31,5.31,0,0,1,2.16-.27C52.5,69.43,52.63,69.45,52.68,69.57Z"/><path class="cls-25" d="M127.44,77.11a8.1,8.1,0,0,1,2.4-.81c.09.06.21.08.24.22a9.6,9.6,0,0,1-2.45.84C127.49,77.34,127.44,77.25,127.44,77.11Z"/><path class="cls-26" d="M110,101.19l1-1.54C111.41,101.08,111.33,101.21,110,101.19Z"/><path class="cls-27" d="M134.38,94.05l-1.95.67c-.15-.26-.42-.15-.63-.21a7.51,7.51,0,0,1,2.12-.68C134.15,93.75,134.39,93.64,134.38,94.05Z"/><path class="cls-28" d="M138.29,111.2l2.6-.86c.13.07.13.16,0,.26a15.16,15.16,0,0,1-2.63,1Z"/><path class="cls-29" d="M133.29,137.86c-.51.15-1,.31-1.52.44-.14,0-.33.22-.45,0s0-.4.18-.54a2.35,2.35,0,0,1,1.33-.27C133,137.62,133.4,137.41,133.29,137.86Z"/><path class="cls-30" d="M140.41,123.1a9.56,9.56,0,0,1,2.65-.86.18.18,0,0,1,0,.31,17.3,17.3,0,0,1-2.19.78Z"/><path class="cls-31" d="M135.69,99.5a15,15,0,0,1,2.6-.86q.18.1,0,.27a12.37,12.37,0,0,1-2.38.81Z"/><path class="cls-32" d="M135.22,106a5.16,5.16,0,0,1,2-.63.39.39,0,0,1,.21.21,4.2,4.2,0,0,1-1.74.63Z"/><path class="cls-33" d="M93.19,161.33c.35-.74,1.12-.66,1.74-.88l.45.2a5.43,5.43,0,0,1-2.21.65Z"/><path class="cls-34" d="M96.41,24.44a4,4,0,0,1,2.13-.56l0,.08a3.82,3.82,0,0,1-1.71.69Z"/><path class="cls-35" d="M144.6,152.5l-1.37-.68C144.29,151.26,144.31,151.27,144.6,152.5Z"/><path class="cls-36" d="M148.89,151.87c-.45.54-1.12.55-1.72.72l-.45-.2a6.47,6.47,0,0,1,2.2-.63Z"/><path class="cls-37" d="M105.89,105.9c-.51,0-1.28.89-1.42-.48C105.05,105.34,105.45,105.71,105.89,105.9Z"/><path class="cls-38" d="M66.73,90.15a.54.54,0,0,0,0-.63,1.07,1.07,0,0,1,1.48.13A4.19,4.19,0,0,1,66.73,90.15Z"/><path class="cls-22" d="M93.83,19.23a4.19,4.19,0,0,1-1.73.68l-.45-.23a5.25,5.25,0,0,1,2.08-.6C93.84,19.09,93.87,19.14,93.83,19.23Z"/><path class="cls-39" d="M116.55,191.18a5,5,0,0,1,1.58-.59l.49.23a6.47,6.47,0,0,1-1.8.6C116.73,191.34,116.59,191.32,116.55,191.18Z"/><path class="cls-25" d="M105.83,34.26a3.94,3.94,0,0,1-1.59.6l-.45-.22a5.45,5.45,0,0,1,1.77-.6C105.66,34.1,105.8,34.11,105.83,34.26Z"/><path class="cls-25" d="M116.37,49.61a2.9,2.9,0,0,1-1.52.6l-.46-.19c.64-.27,1.24-.74,2-.39Z"/><path class="cls-31" d="M132.5,198.84a3.41,3.41,0,0,1-1.81.49,2.71,2.71,0,0,1,1.52-.75Z"/><path class="cls-40" d="M118.13,61.33a3.27,3.27,0,0,1,1.45-.47c.23-.06.48-.19.49.23a3.5,3.5,0,0,1-1.3.43C118.61,61.27,118.34,61.39,118.13,61.33Z"/><path class="cls-41" d="M82.35,10.36,80.81,11l-.46-.2a6.56,6.56,0,0,1,1.78-.6A.57.57,0,0,1,82.35,10.36Z"/><path class="cls-42" d="M107.29,175.61a2.61,2.61,0,0,1-1.3.43.15.15,0,0,1-.25,0c.05-.74.67-.56,1.11-.67C106.94,175.57,107.12,175.57,107.29,175.61Z"/><path class="cls-33" d="M88.84,143.94a5,5,0,0,1-1.69.56.2.2,0,0,1,0-.3,1.88,1.88,0,0,1,1.29-.48Z"/><path class="cls-43" d="M56.11,16.66l-1.9.7a1.61,1.61,0,0,1,1.26-.89C55.63,16.72,55.9,16.59,56.11,16.66Z"/><path class="cls-33" d="M102.55,170.86a5.85,5.85,0,0,1-1.78.6c-.11-.06-.25-.07-.29-.23a4.86,4.86,0,0,1,1.61-.58Z"/><path class="cls-44" d="M71.74,105.58a5.49,5.49,0,0,1-1.78.59c-.09-.06-.22-.07-.24-.21a4.28,4.28,0,0,1,1.57-.59Z"/><path class="cls-45" d="M74.3,117.53c-.65-.27-1.17.48-2.06.17l1.87-.64Z"/><path class="cls-46" d="M84.14,139.2a7.19,7.19,0,0,1-1.8.6.41.41,0,0,1-.22-.19,4.59,4.59,0,0,1,1.75-.62Z"/><path class="cls-47" d="M148,183.18c-.35-.42-.95,0-1.31-.39h2.39c.09,0,.11.07.08.1a.1.1,0,0,1-.09,0C148.75,183,148.42,183.26,148,183.18Z"/><path class="cls-48" d="M71,111.82a4.09,4.09,0,0,1,1.58-.59l.41.43c-.63-.13-1.14.34-1.74.36C71.17,112,71.05,112,71,111.82Z"/><path class="cls-49" d="M66.06,9.05a5.2,5.2,0,0,1,1.87-.61,2.45,2.45,0,0,1-1.42.82Z"/><path class="cls-28" d="M124.83,71.9a1.18,1.18,0,0,1-1.07.48l-.42-.21a2.45,2.45,0,0,1,1.51-.41Z"/><path class="cls-34" d="M92.32,155a3,3,0,0,1,1.31-.42l.45.2a2.79,2.79,0,0,1-1.3.43C92.54,155.33,92.32,155.43,92.32,155Z"/><path class="cls-50" d="M68.23,81.7a3.9,3.9,0,0,1-1.5.45l-.29-.27a2.79,2.79,0,0,1,1.16-.38C67.75,81.74,68,81.65,68.23,81.7Z"/><path class="cls-23" d="M67.59,94.06a2.31,2.31,0,0,1,1.1-.41c.13.27.59,0,.64.42-.55-.26-1,.34-1.51.22C67.73,94.22,67.61,94.2,67.59,94.06Z"/><path class="cls-51" d="M58.1,22.32a1.83,1.83,0,0,1-1.58.28,1.87,1.87,0,0,1,1.11-.51C57.72,22.3,58,22.23,58.1,22.32Z"/><path class="cls-52" d="M69.07,99.9a2.3,2.3,0,0,1,1.13-.4c.13.26.59.08.64.45-.54-.29-1,.21-1.51.18A.29.29,0,0,1,69.07,99.9Z"/><path class="cls-53" d="M101.93,29.27a2.24,2.24,0,0,1-1.14.4.27.27,0,0,1-.24-.26,1.62,1.62,0,0,1,1.09-.39C101.75,29.09,101.9,29.11,101.93,29.27Z"/><path class="cls-26" d="M102.93,45.67a.61.61,0,0,0,0,.64c-.37,0-.77.08-1.07-.28A1.67,1.67,0,0,1,102.93,45.67Z"/><path class="cls-54" d="M88.63,150a2,2,0,0,1,1.09-.39l.42.2a3.08,3.08,0,0,1-1.51.44.14.14,0,0,1-.06-.16Q88.6,150,88.63,150Z"/><path class="cls-30" d="M76.9,134.88c.46,0,.87-.33,1.34-.17l0,0a1.34,1.34,0,0,1-1.32.43Z"/><path class="cls-55" d="M59.09,84.32c.12-.73.55-.77,1.08-.44.2.13-.06.2-.15.27A.68.68,0,0,1,59.09,84.32Z"/><path class="cls-56" d="M152.59,182.06l-1.05.38a.22.22,0,0,1,0-.33l.6-.42.45,0A.2.2,0,0,1,152.59,182.06Z"/><path class="cls-57" d="M84.94,127.66c.15.29.45.22.7.26a2.12,2.12,0,0,1-1.64.35Z"/><path class="cls-36" d="M73.47,123.83a1,1,0,0,1-1.2.14l1.19-.37Z"/><path class="cls-58" d="M145.59,133.93a1.56,1.56,0,0,1,1.35-.23,1.56,1.56,0,0,1-1.07.47Z"/><path class="cls-39" d="M145,127.89c.32-.48.91-.16,1.3-.42.06,0,.07.09.05.13s0,.07-.05.07a2.23,2.23,0,0,1-1.29.46Z"/><path class="cls-19" d="M96,166.47a2.35,2.35,0,0,1,1.12-.39l0,.31a1.82,1.82,0,0,1-.9.3C96.13,166.62,96,166.61,96,166.47Z"/><path class="cls-59" d="M54.81,27.9a1.66,1.66,0,0,1-1.19.24,1.92,1.92,0,0,1,1.18-.45c.06,0,.09.09.07.14S54.83,27.9,54.81,27.9Z"/><path class="cls-28" d="M130.21,82.54c.24-.31.62-.25.94-.34.1,0,.23,0,.26.19-.25.27-.62.25-.94.37Z"/><path class="cls-60" d="M58.27,84.74c-.45.3-.5.27-.86-.65Z"/><path class="cls-27" d="M151.54,182.11v.33a.8.8,0,0,1-.68.27C150.83,182.22,151.12,182.1,151.54,182.11Z"/><path class="cls-61" d="M123.32,195.55a1.38,1.38,0,0,1-1.27.17,1.36,1.36,0,0,1,.85-.33Z"/><path class="cls-19" d="M59.09,84.32a1.67,1.67,0,0,0,.93-.17.26.26,0,0,1,0,.15c-.3.34-.69.28-1.07.26A.18.18,0,0,1,59.09,84.32Z"/><path class="cls-62" d="M62,27.31l.18.22c-.27.3-.58.17-.9.1A.69.69,0,0,1,62,27.31Z"/><path class="cls-63" d="M54.81,27.9c0-.07,0-.14,0-.21a1.22,1.22,0,0,1,1-.36A1.54,1.54,0,0,1,54.81,27.9Z"/><path class="cls-33" d="M57.47,26.72c-.1.32-.38.44-.56.25s.08-.31.27-.33A.84.84,0,0,1,57.47,26.72Z"/><path class="cls-64" d="M112.49,186.46c-.19.3-.49.25-.77.23a.27.27,0,0,1-.36-.05,1.7,1.7,0,0,1,1.12-.41Z"/><path class="cls-65" d="M108.33,67c-.07.21-.26.19-.43.19s-.28-.12-.19-.27a.48.48,0,0,1,.34-.16C108.18,66.76,108.34,66.79,108.33,67Z"/><path class="cls-66" d="M152.15,156.9c.24-.23.53-.23.94-.31-.24.48-.67.36-.92.55Z"/><path class="cls-45" d="M87.76,14.7a1.09,1.09,0,0,1,.82-.25c.21-.1.27,0,.26.2l-.65.21Z"/><path class="cls-67" d="M150.21,138.69c.23-.31.55-.17.89-.07l-.85.39Z"/><path class="cls-68" d="M52.63,28.78v-.25a1,1,0,0,1,.84-.33C53.35,28.71,52.9,28.61,52.63,28.78Z"/><path class="cls-20" d="M152.68,188.22c-.17.28-.5.23-.74.35l-.42-.17a1,1,0,0,1,.81-.24A.23.23,0,0,1,152.68,188.22Z"/><path class="cls-52" d="M113.14,44.25c0-.4.37-.24.58-.31s.3,0,.28.23c-.3,0-.55.34-.89.16Z"/><path class="cls-69" d="M133.29,137.86c0-.28-.37-.17-.46-.37.31-.1.63-.09.77.24C133.65,137.85,133.42,137.87,133.29,137.86Z"/><path class="cls-70" d="M154.34,161.94a.71.71,0,0,0,.65.22c.07,0,.24,0,.15.14s-.23.06-.35.08C154.47,162.41,154.33,162.26,154.34,161.94Z"/><path class="cls-71" d="M119.44,77.82l.23.39c-.21,0-.48.08-.56-.15S119.26,77.8,119.44,77.82Z"/><path class="cls-72" d="M156.7,173.85c.71.45,0,.49-.19.67A.82.82,0,0,1,156.7,173.85Z"/><path class="cls-73" d="M65.19,88.92l-.59.19c-.23.1-.27,0-.24-.21l.84-.28Z"/><path class="cls-74" d="M52.68,69.57l-.28-.18,1,0C53.2,69.72,52.91,69.54,52.68,69.57Z"/><path class="cls-75" d="M58.29,59.81l-.67.2c-.07,0-.1-.09-.07-.14s.05-.07.07-.07c.1-.18.27-.18.44-.17Z"/><path class="cls-76" d="M141.1,181.89l-.18-.47c.25,0,.52,0,.55.29S141.27,181.91,141.1,181.89Z"/><path class="cls-77" d="M149.1,182.94a.66.66,0,0,0,0-.14c.21-.11.39-.3.69-.22C149.69,183,149.4,183,149.1,182.94Z"/><path class="cls-78" d="M74.33,29.69l-.21.38c-.15,0-.44.09-.4-.13S74.09,29.7,74.33,29.69Z"/><path class="cls-53" d="M152.59,182.06v-.35c.28,0,.52-.26.89-.08C153.25,182,152.87,181.94,152.59,182.06Z"/><path class="cls-41" d="M152.68,188.22l-.35-.06a2.43,2.43,0,0,1,1.17-.44A.78.78,0,0,1,152.68,188.22Z"/><path class="cls-79" d="M120.72,196.4a.29.29,0,0,1-.31.2c-.18,0-.26-.15-.19-.27s.24-.12.36-.13A.13.13,0,0,1,120.72,196.4Z"/><path class="cls-80" d="M119.46,196.84a.93.93,0,0,1-.9.16C118.91,196.88,119,196.51,119.46,196.84Z"/><path class="cls-40" d="M88.84,14.65l-.26-.2a1.5,1.5,0,0,1,.93-.37.45.45,0,0,1,.22.19Z"/><path class="cls-64" d="M89.73,14.27l-.22-.19,1.14-.39.11.23Z"/><path class="cls-81" d="M55.86,22.75c-.17.5-.46.53-.84.28Z"/><path class="cls-82" d="M86.17,8.91c-.29.2-.47.43-.64.23s.07-.26.22-.28A1.61,1.61,0,0,1,86.17,8.91Z"/><path class="cls-83" d="M94.78,12.37c-.17.24-.34.34-.56.29,0,0-.09-.13-.07-.16C94.27,12.26,94.48,12.32,94.78,12.37Z"/><path class="cls-84" d="M53,23.72c.22,0,.38,0,.35.18s-.21.16-.33.2-.32,0-.29-.18S53,23.77,53,23.72Z"/><path class="cls-85" d="M91.34,13.67c.16-.3.36-.37.75-.23Z"/><path class="cls-46" d="M82.35,10.36l-.22-.19c.28,0,.47-.32.83-.2A.52.52,0,0,1,82.35,10.36Z"/><path class="cls-22" d="M140.91,110.6l0-.26,1.31-.4c.09.06.22.07.25.19A2.93,2.93,0,0,1,140.91,110.6Z"/><path class="cls-46" d="M142.45,110.13l-.25-.19a2.62,2.62,0,0,1,1.5-.31A2.68,2.68,0,0,1,142.45,110.13Z"/><path class="cls-86" d="M143.56,109.77a1.6,1.6,0,0,1,1.41-.69A2.22,2.22,0,0,1,143.56,109.77Z"/><path class="cls-82" d="M151.89,107a3,3,0,0,1-.43.09c-.07,0-.13-.09-.19-.14a1.59,1.59,0,0,1,.34-.18S151.74,106.86,151.89,107Z"/><path class="cls-22" d="M147.41,114.54l.79-.27C148,114.71,147.76,114.66,147.41,114.54Z"/><path class="cls-44" d="M146.32,115.07a.91.91,0,0,1-1.13.16A1.68,1.68,0,0,1,146.32,115.07Z"/><path class="cls-30" d="M143.88,115.73a.91.91,0,0,1,1.16-.1c-.35.13-.54.27-.81.14A.24.24,0,0,1,143.88,115.73Z"/><path class="cls-87" d="M143.88,115.73l.35,0a1.14,1.14,0,0,1-1,.36C143.35,115.71,143.65,115.76,143.88,115.73Z"/><path class="cls-88" d="M149.77,114.05a3,3,0,0,1-.48.15c-.09,0-.26,0-.28,0s.06-.27.19-.3S149.38,113.91,149.77,114.05Z"/><path class="cls-89" d="M152.85,112.67l.21.18a1.26,1.26,0,0,1-.35.17c-.05,0-.13-.12-.2-.18Z"/><path class="cls-87" d="M142.2,116.44v-.23c.24,0,.6-.43.68,0S142.42,116.31,142.2,116.44Z"/><path class="cls-60" d="M79.49,140.63a.81.81,0,0,1,1.17-.28C80.29,140.43,80,140.78,79.49,140.63Z"/><path class="cls-90" d="M79.32,140.67a.82.82,0,0,1-1,.32A.74.74,0,0,1,79.32,140.67Z"/><path class="cls-91" d="M77.35,141.3a.69.69,0,0,1,.9-.29C78.05,141.5,77.71,141.38,77.35,141.3Z"/><path class="cls-56" d="M82.12,139.61l.22.19c-.28.12-.54.31-.88.21C81.57,139.64,81.84,139.61,82.12,139.61Z"/><path class="cls-92" d="M74.69,142.18c.32-.21.56-.48.73-.31s0,.31-.24.35S75,142.2,74.69,142.18Z"/><path class="cls-93" d="M76.64,141.82l-.3-.14a1.2,1.2,0,0,1,.26-.29c.12-.07.29-.06.27.13S76.72,141.71,76.64,141.82Z"/><path class="cls-19" d="M84.68,145a3.79,3.79,0,0,1,1.26-.44c.24-.09.32,0,.3.23l-1.3.42C84.85,145.15,84.72,145.14,84.68,145Z"/><path class="cls-94" d="M84.68,145l.26.21-1.3.41a.28.28,0,0,1-.22-.16Z"/><path class="cls-77" d="M80.77,146.6a.79.79,0,0,1,1.13-.36Z"/><path class="cls-34" d="M86.24,144.79l-.3-.23a1.85,1.85,0,0,1,1.18-.36l0,.3Z"/><path class="cls-95" d="M83.42,145.46l.22.16c-.46.16-.9.44-1.47.16Z"/><path class="cls-96" d="M74.9,148.42c.14-.19.37-.38.51-.26s0,.3-.21.32A.89.89,0,0,1,74.9,148.42Z"/><path class="cls-25" d="M88.63,150v.25a1.88,1.88,0,0,1-1.09.41.2.2,0,0,1,0-.31A2.17,2.17,0,0,1,88.63,150Z"/><path class="cls-19" d="M86.69,150.89a2.21,2.21,0,0,1-1.32.4v-.14a2.18,2.18,0,0,1,1.09-.44A.36.36,0,0,1,86.69,150.89Z"/><path class="cls-69" d="M83.16,152c-.26.21-.53.46-.91.3A.72.72,0,0,1,83.16,152Z"/><path class="cls-13" d="M77.25,154a.91.91,0,0,1-1,.33C76.45,153.9,76.78,153.91,77.25,154Z"/><path class="cls-97" d="M85.38,151.15a.33.33,0,0,0,0,.14c-.28.38-.65.26-1.35.16Z"/><path class="cls-98" d="M86.69,150.89l-.22-.18,1.06-.37v.31Z"/><path class="cls-99" d="M81.34,152.37l.28.12a1.62,1.62,0,0,1-.31.24s-.13-.11-.2-.18Z"/><path class="cls-49" d="M137.83,105.11c.6-.24,1.17-.65,1.9-.25l-1.46.44C138.15,105.19,137.93,105.3,137.83,105.11Z"/><path class="cls-100" d="M139.77,104.66c.5-.47.8-.63,1.31-.4A2,2,0,0,1,139.77,104.66Z"/><path class="cls-101" d="M137.83,105.11l.44.19-.85.26-.21-.21A.88.88,0,0,1,137.83,105.11Z"/><path class="cls-102" d="M143.82,103.24c.41-.31.64-.44.94-.22A1.05,1.05,0,0,1,143.82,103.24Z"/><path class="cls-103" d="M142.28,103.92c.41-.57.77-.59,1.19-.38Z"/><path class="cls-104" d="M146.65,102.14c.14,0,.24.09.18.21a.39.39,0,0,1-.27.13c-.07,0-.26,0-.13-.15A1.3,1.3,0,0,1,146.65,102.14Z"/><path class="cls-25" d="M138.32,98.91l0-.27a3,3,0,0,1,1.67-.27A4.1,4.1,0,0,1,138.32,98.91Z"/><path class="cls-105" d="M148.56,95.29a1.16,1.16,0,0,1,1.1-.29A1,1,0,0,1,148.56,95.29Z"/><path class="cls-106" d="M142.49,97.37c.39-.35.65-.46,1.09-.22A1.15,1.15,0,0,1,142.49,97.37Z"/><path class="cls-25" d="M140.09,98.21c.29-.23.57-.5,1-.39C140.89,98.3,140.45,98.18,140.09,98.21Z"/><path class="cls-28" d="M124.83,71.9a.68.68,0,0,0,0-.14c.39-.37.8-.6,1.32-.23l0,0C125.74,71.75,125.36,72.06,124.83,71.9Z"/><path class="cls-28" d="M126.17,71.53c.06-.71.66-.51,1.07-.64.08.07.21.08.23.21a2.57,2.57,0,0,1-1.32.41Z"/><path class="cls-30" d="M129,70.35a.92.92,0,0,1,1-.18c-.29.36-.67.27-.94.42-.07,0-.09-.1-.08-.15S128.92,70.35,129,70.35Z"/><path class="cls-107" d="M129,70.35v.24l-.65.21a.32.32,0,0,1-.24-.16A1.65,1.65,0,0,1,129,70.35Z"/><path class="cls-95" d="M128.07,70.64l.24.16-.84.3-.23-.21Z"/><path class="cls-87" d="M123.54,65.93a2.68,2.68,0,0,1,1.91-.51v0a3.27,3.27,0,0,1-1.89.7l-.07-.08Z"/><path class="cls-103" d="M126.79,65a1.42,1.42,0,0,1-1.35.43v0c.29-.58.85-.51,1.36-.58Z"/><path class="cls-67" d="M127.64,64.56a1.52,1.52,0,0,1,1.12-.37c-.15.49-.5.38-.79.4A.24.24,0,0,1,127.64,64.56Z"/><path class="cls-87" d="M123.54,65.93a1,1,0,0,0,0,.17c-.06.23-.26.18-.42.22l-.44-.19A1.17,1.17,0,0,1,123.54,65.93Z"/><path class="cls-64" d="M127.64,64.56l.33,0a1.63,1.63,0,0,1-1.18.38.09.09,0,0,0,0-.13A1.1,1.1,0,0,1,127.64,64.56Z"/><path class="cls-108" d="M135,62.2a.91.91,0,0,1-.84.39C134.18,62.07,134.53,62.23,135,62.2Z"/><path class="cls-109" d="M133.64,62.69c-.21.16-.41.44-.61.2s.12-.25.28-.26A1.22,1.22,0,0,1,133.64,62.69Z"/><path class="cls-110" d="M134.38,94.05c-.09-.2-.29-.18-.46-.22a6.23,6.23,0,0,1,1.78-.6c.12.13.34,0,.44.2A5.77,5.77,0,0,1,134.38,94.05Z"/><path class="cls-111" d="M137.91,92.8a1.62,1.62,0,0,1-.94.37c-.12-.13-.34,0-.43-.2.31-.3.74-.24,1.11-.4C137.74,92.65,137.88,92.66,137.91,92.8Z"/><path class="cls-112" d="M136.54,93l.43.2-.83.26-.44-.2Z"/><path class="cls-111" d="M139.59,92.13c-.22.3-.52.45-.67.3s.09-.32.26-.37A1.51,1.51,0,0,1,139.59,92.13Z"/><path class="cls-89" d="M145.33,90.36c-.1,0-.24,0-.16-.17a.55.55,0,0,1,.32-.21.32.32,0,0,1,.24.11C145.69,90.3,145.52,90.35,145.33,90.36Z"/><path class="cls-49" d="M137.91,92.8l-.26-.23c.24,0,.58-.35.71,0S138.08,92.76,137.91,92.8Z"/><path class="cls-43" d="M120.71,60.45c.69-.21,1.34-.65,2.13-.29l-1.47.48C121.18,60.47,120.88,60.69,120.71,60.45Z"/><path class="cls-53" d="M120.71,60.45c.23,0,.49,0,.66.19l-1.3.45c-.11-.2-.31-.2-.49-.23A2.58,2.58,0,0,1,120.71,60.45Z"/><path class="cls-30" d="M124.24,59.68c.07-.7.58-.55,1.15-.65-.34.56-.86.37-1.16.63Z"/><path class="cls-103" d="M126.55,58.74a.87.87,0,0,1-1,.24A.91.91,0,0,1,126.55,58.74Z"/><path class="cls-49" d="M124.23,59.66a2.73,2.73,0,0,1-1.34.31c.52-.55.91-.58,1.35-.29Z"/><path class="cls-113" d="M128.56,58.3c-.35,0-.43-.09-.4-.22a.27.27,0,0,1,.31-.21c.1,0,.22,0,.17.18S128.5,58.29,128.56,58.3Z"/><path class="cls-87" d="M143.08,122.55l0-.31a2,2,0,0,1,1.29-.25A2.36,2.36,0,0,1,143.08,122.55Z"/><path class="cls-67" d="M146.31,121.23c.31-.33.68-.35,1.39-.29a2.61,2.61,0,0,1-1.39.44Z"/><path class="cls-114" d="M152.77,118.93c.22,0,.39,0,.37.17s-.22.15-.34.2-.32,0-.3-.18S152.71,119,152.77,118.93Z"/><path class="cls-32" d="M146.31,121.23a.2.2,0,0,0,0,.15c-.17.32-.45.28-.74.24a.3.3,0,0,1-.39,0C145.48,121.23,145.93,121.34,146.31,121.23Z"/><path class="cls-87" d="M145.18,121.58l.39,0a1.49,1.49,0,0,1-1,.37C144.68,121.52,145,121.64,145.18,121.58Z"/><path class="cls-106" d="M149.53,120.29a.34.34,0,0,1-.36.23c-.18,0-.28-.08-.17-.24a.59.59,0,0,1,.36-.15S149.48,120.24,149.53,120.29Z"/><path class="cls-115" d="M147.62,127.06a3,3,0,0,1,1.67-.5,3.13,3.13,0,0,1-1.68.64Z"/><path class="cls-77" d="M147.62,127.06a.14.14,0,0,1,0,.14,1.74,1.74,0,0,1-1.3.47.67.67,0,0,1,0-.2A1.89,1.89,0,0,1,147.62,127.06Z"/><path class="cls-116" d="M150.87,126c-.18.44-.48.4-.82.32A.61.61,0,0,1,150.87,126Z"/><path class="cls-80" d="M152.2,125.63a2.5,2.5,0,0,1-.41.28s-.2-.09-.21-.16.15-.2.29-.21S152,125.58,152.2,125.63Z"/><path class="cls-117" d="M93.83,19.23a.31.31,0,0,1-.1-.15c.31-.45.69-.42,1.31-.17A2.6,2.6,0,0,1,93.83,19.23Z"/><path class="cls-86" d="M96.05,18.57l-.83.22c-.17-.39.08-.41.28-.44a2.9,2.9,0,0,1,.51,0Z"/><path class="cls-118" d="M99.35,17.26c-.08.13-.16.27-.32.19s-.09-.15-.13-.23a1,1,0,0,1,.27-.11C99.27,17.1,99.38,17.12,99.35,17.26Z"/><path class="cls-40" d="M120.28,54.46c.42-.44,1-.42,1.52-.59.06.06.08.11.06.17s0,.09-.06.09a3.39,3.39,0,0,1-1.53.41Z"/><path class="cls-95" d="M120.28,54.46v.08a2.71,2.71,0,0,1-1.48.58v-.29A4.59,4.59,0,0,1,120.28,54.46Z"/><path class="cls-81" d="M121.8,54.13v-.26c.24-.25.54-.2,1-.3C122.47,54.09,122.09,54,121.8,54.13Z"/><path class="cls-119" d="M123.19,53.54c.16-.36.41-.26.71-.29C123.7,53.63,123.43,53.54,123.19,53.54Z"/><path class="cls-120" d="M129,51.56a.59.59,0,0,1-.78.24c.24-.37.53-.19.78-.24Z"/><path class="cls-14" d="M129,51.56c.18-.21.37-.43.73-.19-.19.32-.49.15-.73.19Z"/><path class="cls-21" d="M95.34,166.84c-.44.51-1.1.44-1.69.58a2.42,2.42,0,0,1,1.72-.62Z"/><path class="cls-87" d="M95.34,166.84l0,0c.06-.38.37-.27.6-.33l.24.22C95.93,166.8,95.67,167,95.34,166.84Z"/><path class="cls-90" d="M91.88,168c.2-.25.37-.4.64-.27.07,0,.09.17.14.26A1,1,0,0,1,91.88,168Z"/><path class="cls-121" d="M90.6,168.46c.14-.32.42-.38.78-.42-.11.53-.48.4-.79.4Z"/><path class="cls-122" d="M90.59,168.44c-.18.31-.43.35-.86.24a.89.89,0,0,1,.87-.22Z"/><path class="cls-60" d="M92.32,155c.1.18.28.19.46.21a6.65,6.65,0,0,1-1.78.59c-.13-.1-.33,0-.43-.17A5.83,5.83,0,0,1,92.32,155Z"/><path class="cls-117" d="M86.91,157c.23-.42.68-.22,1-.39-.17.54-.67.38-1,.52Z"/><path class="cls-73" d="M90.15,156a1.29,1.29,0,0,1-.84.28.21.21,0,0,1-.33,0,1.77,1.77,0,0,1,1.17-.42.13.13,0,0,1,0,.12S90.17,156,90.15,156Z"/><path class="cls-123" d="M86.91,157a.29.29,0,0,1,0,.13,1.12,1.12,0,0,1-1.07.26A1.36,1.36,0,0,1,86.91,157Z"/><path class="cls-124" d="M90.15,156v-.18c.06-.23.26-.18.42-.21l.43.17Z"/><path class="cls-125" d="M89,156.28l.33,0c-.31.31-.7.27-1.15.35C88.37,156.18,88.68,156.26,89,156.28Z"/><path class="cls-126" d="M85.4,157.58c-.33.23-.53.32-.82.18A.75.75,0,0,1,85.4,157.58Z"/><path class="cls-127" d="M84.31,158a1.59,1.59,0,0,1-.39.23s-.18-.1-.19-.17.16-.17.28-.18A1,1,0,0,1,84.31,158Z"/><path class="cls-36" d="M134.37,87.74c-.6.11-1.12.59-1.79.36v0c.3-.52.86-.44,1.33-.58C134.13,87.47,134.37,87.34,134.37,87.74Z"/><path class="cls-128" d="M135.29,87.37c.26-.7,1-.55,1.47-.73.06,0,.08.1.06.14s0,.08-.06.08l-1.49.49Z"/><path class="cls-126" d="M134.37,87.74c-.08-.22-.3-.15-.45-.2a1.16,1.16,0,0,1,1.37-.17l0,0C135.07,87.71,134.66,87.58,134.37,87.74Z"/><path class="cls-43" d="M136.76,86.86v-.22c.31-.29.72-.26,1.1-.36,0,0,.06.08,0,.11s0,0-.06,0A2.12,2.12,0,0,1,136.76,86.86Z"/><path class="cls-79" d="M137.84,86.44a.14.14,0,0,1,0-.16c.09-.24.3-.25.51-.23,0,0,.11.18.09.22C138.32,86.53,138.08,86.51,137.84,86.44Z"/><path class="cls-129" d="M139,86a.72.72,0,0,1,.66-.36s.1.12.09.14A.51.51,0,0,1,139,86Z"/><path class="cls-130" d="M141.3,85.17c.28-.25.52-.44.69-.22s-.12.21-.24.25A1.62,1.62,0,0,1,141.3,85.17Z"/><path class="cls-117" d="M90.57,162.15c.31-.54.74-.43,1.14-.42A1.26,1.26,0,0,1,90.57,162.15Z"/><path class="cls-70" d="M93.17,161.3a1.1,1.1,0,0,1-1.18.31c.41-.42.76-.55,1.2-.28Z"/><path class="cls-119" d="M89.38,162.37c-.37.54-.63.52-1.15.42Z"/><path class="cls-131" d="M88,163.14a.77.77,0,0,1-.73.1v-.19C87.45,163.06,87.7,162.72,88,163.14Z"/><path class="cls-132" d="M131.92,75.78c.31-.5.79-.35,1.14-.48A1,1,0,0,1,131.92,75.78Z"/><path class="cls-133" d="M134,74.84l1.15-.27a1.12,1.12,0,0,1-1.11.56Z"/><path class="cls-103" d="M130.65,76a1.16,1.16,0,0,1,1.19-.14,1.58,1.58,0,0,1-.93.37C130.82,76.19,130.68,76.17,130.65,76Z"/><path class="cls-50" d="M130.65,76l.26.23-.83.26-.24-.22Z"/><path class="cls-134" d="M137,73.88s.09.12.06.16a.68.68,0,0,1-.29.24s-.17-.11-.18-.18S136.76,73.92,137,73.88Z"/><path class="cls-135" d="M138.4,73.62c-.07.14-.15.27-.31.22s-.1-.15-.15-.23a1.51,1.51,0,0,1,.26-.12C138.3,73.47,138.4,73.49,138.4,73.62Z"/><path class="cls-63" d="M139.47,73.29c-.06,0-.12.15-.19.16s-.35,0-.39,0,.12-.18.21-.24S139.36,73.1,139.47,73.29Z"/><path class="cls-87" d="M111.36,186.64l.36.05a1.06,1.06,0,0,1-.92.29C110.85,186.56,111.15,186.69,111.36,186.64Z"/><path class="cls-98" d="M106.84,181.7l0,.24c-.36.38-.83.44-1.58.63A4.8,4.8,0,0,1,106.84,181.7Z"/><path class="cls-136" d="M105.37,182.54a2.6,2.6,0,0,1-1.28.45C104.57,182.48,104.57,182.48,105.37,182.54Z"/><path class="cls-82" d="M99.55,184.36c.13-.1.2-.2.29-.21s.13.1.2.16-.14.14-.22.16S99.67,184.41,99.55,184.36Z"/><path class="cls-34" d="M100.48,171.23l.29.23-1.31.42c-.08-.06-.22-.06-.23-.2A2.94,2.94,0,0,1,100.48,171.23Z"/><path class="cls-137" d="M95.59,172.88a.83.83,0,0,1,1.07,0l-1,.27Z"/><path class="cls-98" d="M99.23,171.68l.23.2-1,.32A.75.75,0,0,1,99.23,171.68Z"/><path class="cls-83" d="M90.89,174.59c.12-.1.19-.19.27-.2s.13.09.2.15-.14.15-.21.16S91,174.64,90.89,174.59Z"/><path class="cls-58" d="M117.72,49.19a2.5,2.5,0,0,1-1.35.42l0,0c.08-.69.69-.49,1.09-.64C117.56,49.05,117.69,49.07,117.72,49.19Z"/><path class="cls-25" d="M119.19,48.48a1,1,0,0,1,1-.26c-.29.4-.67.34-1,.48-.07,0-.09-.09-.07-.14S119.17,48.48,119.19,48.48Z"/><path class="cls-75" d="M117.72,49.19l-.24-.2c.29-.05.53-.33.86-.24.2-.13.22,0,.21.16Z"/><path class="cls-98" d="M118.55,48.91l-.21-.16a1.31,1.31,0,0,1,.85-.27v.22Z"/><path class="cls-22" d="M105.74,176.05H106a2.48,2.48,0,0,1-1.31.42c-.09-.06-.22-.08-.24-.22C104.86,176.1,105.22,175.55,105.74,176.05Z"/><path class="cls-87" d="M104.44,176.24l.24.22a3.34,3.34,0,0,1-1.3.4q-.12-.06-.09-.12s.06-.07.08-.07A1.91,1.91,0,0,1,104.44,176.24Z"/><path class="cls-86" d="M102.54,177.15c-.28.36-.68.23-1.16.43.23-.6.65-.5.93-.63C102.4,177,102.52,177,102.54,177.15Z"/><path class="cls-56" d="M102.54,177.15l-.23-.2c.37-.06.66-.37,1.06-.28a1.28,1.28,0,0,1,0,.19Z"/><path class="cls-84" d="M96.67,179c-.33.32-.49.46-.71.28a.26.26,0,0,1,0-.17Z"/><path class="cls-138" d="M95.31,179.6a1.72,1.72,0,0,1-.4.19c-.13,0-.18-.08-.13-.18a.44.44,0,0,1,.22-.19C95.07,179.41,95.16,179.5,95.31,179.6Z"/><path class="cls-107" d="M116,191.66a1,1,0,0,1-1.2.09l1-.26A.33.33,0,0,1,116,191.66Z"/><path class="cls-45" d="M116,191.66l-.23-.17.8-.31.27.24Z"/><path class="cls-139" d="M112.76,192.63c.28-.31.51-.43.82-.24A.54.54,0,0,1,112.76,192.63Z"/><path class="cls-140" d="M112,192.73c.06,0,.2.08.21.14a.22.22,0,0,1-.22.27c-.08,0-.22-.06-.23-.13S111.8,192.77,112,192.73Z"/><path class="cls-141" d="M98.57,24l0-.08c.48-.47.48-.47,1.17-.16C99.27,23.81,99,24.1,98.57,24Z"/><path class="cls-121" d="M101,22.84l1.14-.36C101.86,23.13,101.47,23.07,101,22.84Z"/><path class="cls-92" d="M104.18,22c-.1.11-.16.23-.24.26s-.16-.08-.23-.12.1-.19.17-.21S104.05,21.92,104.18,22Z"/><path class="cls-70" d="M107.22,33.51a.8.8,0,0,1,1,0l-.79.25C107.38,33.68,107.23,33.67,107.22,33.51Z"/><path class="cls-47" d="M110.62,32.4c.4-.14.59-.45.91-.18C111.36,32.56,111.1,32.54,110.62,32.4Z"/><path class="cls-132" d="M109.43,33.07l-.74.25c0-.1-.09-.18-.07-.22C108.81,32.74,109.13,32.93,109.43,33.07Z"/><path class="cls-87" d="M107.22,33.51l.26.23-.79.26C106.64,33.52,107,33.59,107.22,33.51Z"/><path class="cls-87" d="M105.83,34.26l-.27-.22c.27,0,.6-.43.77.05C106.38,34.26,106,34.19,105.83,34.26Z"/><path class="cls-84" d="M114.07,31.4a.7.7,0,0,1-.23.15.14.14,0,0,1-.18-.18.35.35,0,0,1,.23-.15C114,31.19,114.1,31.22,114.07,31.4Z"/><path class="cls-54" d="M104,28.56l-1.3.42c-.1-.05-.23-.07-.26-.21a3.42,3.42,0,0,1,1.32-.43C104,28.25,104.06,28.36,104,28.56Z"/><path class="cls-142" d="M105.83,27.58l1.09-.26A.73.73,0,0,1,105.83,27.58Z"/><path class="cls-94" d="M102.46,28.77l.26.21a1.34,1.34,0,0,1-.79.29l-.29-.25Z"/><path class="cls-143" d="M104,28.56l-.24-.22c.31-.33.66-.3,1.08,0Z"/><path class="cls-105" d="M111.21,25.74l.26.16a1.33,1.33,0,0,1-.29.25c-.1,0-.31.07-.26-.15S111.1,25.83,111.21,25.74Z"/><path class="cls-144" d="M110.43,26.26c-.22.21-.39.34-.62.24,0,0-.08-.16-.06-.18C109.92,26.14,110.13,26.17,110.43,26.26Z"/><path class="cls-22" d="M110.2,39.14l-1.35.46a1.3,1.3,0,0,1,1.26-.76Z"/><path class="cls-53" d="M111.65,38.57a1.77,1.77,0,0,1-1.21.33,1.09,1.09,0,0,1,1-.52C111.5,38.44,111.63,38.43,111.65,38.57Z"/><path class="cls-97" d="M111.65,38.57l-.24-.19a2.48,2.48,0,0,1,1.53-.25Z"/><path class="cls-116" d="M115.5,37.12a.6.6,0,0,1-.8.29A.69.69,0,0,1,115.5,37.12Z"/><path class="cls-71" d="M113.41,37.83a.59.59,0,0,1,.81-.27C114,38,113.75,38,113.41,37.83Z"/><path class="cls-53" d="M114,44.17l-.28-.23a2.77,2.77,0,0,1,1.23-.36C114.77,44.12,114.27,44,114,44.17Z"/><path class="cls-119" d="M116.79,43c-.29.45-.77.41-1.32.58.35-.69.91-.5,1.33-.65Z"/><path class="cls-9" d="M123.37,40.58c.09.07.23.13.23.19,0,.23-.21.24-.37.27s-.13-.13-.2-.2Z"/><path class="cls-145" d="M119.12,42.3a.67.67,0,0,1-.6.28s-.06-.17-.09-.25C118.65,42.26,118.88,42.15,119.12,42.3Z"/><path class="cls-145" d="M116.79,43V43a.9.9,0,0,1,.88-.27A.64.64,0,0,1,116.79,43Z"/><path class="cls-146" d="M137.23,80.31c-.27.44-.57.3-1,.32C136.59,80.36,136.79,80.14,137.23,80.31Z"/><path class="cls-87" d="M133.17,81.73a1,1,0,0,1-.89.29c.05-.42.35-.28.55-.33A.22.22,0,0,1,133.17,81.73Z"/><path class="cls-87" d="M131.41,82.39l-.26-.19c.23,0,.53-.39.68,0S131.56,82.33,131.41,82.39Z"/><path class="cls-147" d="M133.17,81.73l-.34,0c.28-.36.62-.28,1-.2A.62.62,0,0,1,133.17,81.73Z"/><path class="cls-142" d="M136.11,80.66c-.1.23-.35.4-.48.3-.29-.22,0-.32.18-.34A1.13,1.13,0,0,1,136.11,80.66Z"/><path class="cls-104" d="M138.21,80.21l-.29-.13a2.35,2.35,0,0,1,.29-.26s.17.11.18.18S138.28,80.13,138.21,80.21Z"/><path class="cls-148" d="M142,78.73c-.12.22-.33.36-.49.2s0-.24.19-.25A1.17,1.17,0,0,1,142,78.73Z"/><path class="cls-58" d="M148.92,132.92a3.16,3.16,0,0,1,1.63-.53,2.78,2.78,0,0,1-1.64.67Z"/><path class="cls-149" d="M148.29,133.33a2.25,2.25,0,0,1-1.42.42c.28-.56.77-.53,1.19-.62C148.14,133.19,148.26,133.21,148.29,133.33Z"/><path class="cls-79" d="M153.26,131.6a.78.78,0,0,1-.89.14C152.67,131.56,152.87,131.32,153.26,131.6Z"/><path class="cls-150" d="M151.36,132.17c.15-.36.42-.4.76-.32C152,132.31,151.7,132.28,151.36,132.17Z"/><path class="cls-95" d="M148.29,133.33l-.23-.2c.29-.07.54-.29.86-.21a.23.23,0,0,0,0,.14A.69.69,0,0,1,148.29,133.33Z"/><path class="cls-79" d="M151.93,138.31a.24.24,0,0,1-.31.19c-.17,0-.25-.13-.2-.27a.37.37,0,0,1,.26-.14C151.82,138.07,152,138.12,151.93,138.31Z"/><path class="cls-137" d="M154.43,137.43c-.07.06-.14.17-.22.18s-.15-.1-.22-.16.15-.15.23-.17S154.43,137.25,154.43,137.43Z"/><path class="cls-151" d="M157.47,174a1.21,1.21,0,0,1,1-.55A1.23,1.23,0,0,1,157.47,174Z"/><path class="cls-152" d="M67.17,94.51a2.07,2.07,0,0,1-1.4.36c.23-.5.62-.49,1-.55C66.87,94.44,67.08,94.34,67.17,94.51Z"/><path class="cls-100" d="M63.71,95.63c.11-.64.73-.41,1.08-.65.1.06.23.07.27.21a2.53,2.53,0,0,1-1.36.42Z"/><path class="cls-87" d="M67.17,94.51l-.42-.19.84-.26.23.23Z"/><path class="cls-153" d="M63.7,95.61c-.26.37-.66.2-1,.28.25-.46.62-.4,1-.26Z"/><path class="cls-154" d="M62.36,96c-.39.29-.65.39-1,.26C61.56,95.9,61.86,96,62.36,96Z"/><path class="cls-155" d="M57.72,97.49c.18-.21.33-.34.56-.26a.19.19,0,0,1,.07.17C58.23,97.62,58,97.56,57.72,97.49Z"/><path class="cls-147" d="M65.06,95.19,64.79,95c.24-.06.57-.38.71,0S65.24,95.16,65.06,95.19Z"/><path class="cls-17" d="M158.76,160.94a.68.68,0,0,1,.86-.21C159.36,161,159.15,161.14,158.76,160.94Z"/><path class="cls-156" d="M64.36,88.9l.24.21c-.3.3-.7.21-1.19.48A.89.89,0,0,1,64.36,88.9Z"/><path class="cls-157" d="M54.09,92.49a.86.86,0,0,1,1-.31A.89.89,0,0,1,54.09,92.49Z"/><path class="cls-48" d="M61.09,90.2c-.21.29-.48.2-.73.22C60.53,90.12,60.77,90.09,61.09,90.2Z"/><path class="cls-31" d="M63.36,89.51c-.56.25-.84.31-1.19.14A1.51,1.51,0,0,1,63.36,89.51Z"/><path class="cls-140" d="M52.34,55.6a2.3,2.3,0,0,1-.43.18c-.14,0-.3-.07-.27-.21s.23-.13.35-.19S52.26,55.38,52.34,55.6Z"/><path class="cls-158" d="M54.32,54.6l.26.08a1.37,1.37,0,0,1-.3.25.3.3,0,0,1-.26-.08C54,54.68,54.14,54.63,54.32,54.6Z"/><path class="cls-46" d="M65.66,101.07c.43-.14.82-.48,1.38-.14l-1.14.32C65.69,101.36,65.64,101.25,65.66,101.07Z"/><path class="cls-87" d="M69.07,99.9l.26.23-.84.31,0,0C68.45,100,68.69,99.9,69.07,99.9Z"/><path class="cls-23" d="M65.66,101.07l.24.18c-.28.32-.68.19-1.22.44C65,101.12,65.37,101.17,65.66,101.07Z"/><path class="cls-50" d="M64.75,101.4a.93.93,0,0,1-1.2.35Z"/><path class="cls-31" d="M68.49,100.44l-1,.32c.28-.52.62-.7,1.07-.29Z"/><path class="cls-153" d="M61.68,102.58c.14-.35.39-.3.69-.28C62.18,102.62,61.92,102.58,61.68,102.58Z"/><path class="cls-96" d="M57.37,104.18a3.13,3.13,0,0,1-.49.07c-.1,0-.23,0-.11-.18a.43.43,0,0,1,.28-.13C57.13,104,57.2,104.05,57.37,104.18Z"/><path class="cls-98" d="M69.12,106.38a1.2,1.2,0,0,1-.83.3c-.2.09-.26,0-.23-.19.36,0,.66-.35,1.06-.26.07,0,.09.07.07.1A.1.1,0,0,1,69.12,106.38Z"/><path class="cls-159" d="M68.06,106.49l.23.19c-.25.31-.59.27-1,.24C67.42,106.47,67.83,106.64,68.06,106.49Z"/><path class="cls-21" d="M65.2,107.59c.28-.13.48-.39.79-.3l.09.08C65.82,107.53,65.57,107.73,65.2,107.59Z"/><path class="cls-109" d="M60.61,109.38c-.11-.07-.25-.12-.25-.18,0-.24.22-.19.35-.25s.23.07.23.12C61,109.33,60.69,109.22,60.61,109.38Z"/><path class="cls-18" d="M59.45,109.34l.2.19c-.08,0-.15.13-.23.14s-.3,0-.3-.06S59.29,109.42,59.45,109.34Z"/><path class="cls-160" d="M64.51,107.84a.39.39,0,0,1-.44.3c-.07,0-.26,0-.13-.18a.77.77,0,0,1,.34-.22C64.34,107.72,64.43,107.8,64.51,107.84Z"/><path class="cls-101" d="M69.12,106.38v-.15a.8.8,0,0,1,.6-.27l.24.21C69.69,106.28,69.44,106.49,69.12,106.38Z"/><path class="cls-75" d="M78.22,134.74l0,0A3.2,3.2,0,0,1,80,134c.08,0,.11.09.09.14s0,.09-.07.09A3.42,3.42,0,0,1,78.22,134.74Z"/><path class="cls-124" d="M80,134.24l0-.23a1.23,1.23,0,0,1,.87-.24.12.12,0,0,0,0,.15C80.63,134.29,80.28,134.2,80,134.24Z"/><path class="cls-15" d="M60.23,115.53a1,1,0,0,1-1.13.36c.31-.42.73-.34,1.13-.35Z"/><path class="cls-87" d="M71,111.82l.25.2a.89.89,0,0,1-.2.06c-.22,0-.52.38-.61,0S70.81,111.89,71,111.82Z"/><path class="cls-85" d="M69.59,112.53c-.29.35-.68.22-1.15.34.26-.45.51-.47.81-.39A.23.23,0,0,1,69.59,112.53Z"/><path class="cls-34" d="M66.84,113.34c-.21.17-.43.37-.71.18A.62.62,0,0,1,66.84,113.34Z"/><path class="cls-90" d="M65.85,113.63a.56.56,0,0,1-.74.33C65.27,113.59,65.52,113.56,65.85,113.63Z"/><path class="cls-56" d="M69.59,112.53l-.34,0a1.33,1.33,0,0,1,.94-.39C70.12,112.5,69.85,112.5,69.59,112.53Z"/><path class="cls-120" d="M60.23,115.54c.19-.21.37-.44.74-.2-.2.33-.51.15-.74.19Z"/><path class="cls-44" d="M156.06,155.64c-.21.4-.58.35-1,.43a1.12,1.12,0,0,1,1.06-.41Z"/><path class="cls-71" d="M154.59,156.15c-.26.35-.52.47-.88.31C153.88,156.12,154.14,156,154.59,156.15Z"/><path class="cls-161" d="M156.08,155.66c.18-.33.44-.34.79-.19a.94.94,0,0,1-.81.17Z"/><path class="cls-84" d="M54.67,86.24l-.22-.19c.07-.06.13-.16.21-.18s.15.07.23.11Z"/><path class="cls-142" d="M71.11,118l1.25-.37a1.19,1.19,0,0,1-1.18.64Z"/><path class="cls-162" d="M70,118.61a.66.66,0,0,1,.9-.32C70.68,118.73,70.33,118.63,70,118.61Z"/><path class="cls-163" d="M68.76,118.94a.87.87,0,0,1,.91-.18A.73.73,0,0,1,68.76,118.94Z"/><path class="cls-148" d="M64.82,120.35a3.11,3.11,0,0,1-.45.35c-.12,0-.29.06-.29-.13s.11-.18.19-.21A2.78,2.78,0,0,1,64.82,120.35Z"/><path class="cls-164" d="M68.14,119.46c-.13-.06-.3-.09-.3-.13a.24.24,0,0,1,.26-.26c.11,0,.3-.12.3.09S68.23,119.36,68.14,119.46Z"/><path class="cls-63" d="M65.84,120.08c-.11.09-.18.18-.25.19s-.15-.08-.22-.13.11-.18.19-.2S65.71,120,65.84,120.08Z"/><path class="cls-42" d="M148.89,151.87a.2.2,0,0,1,0-.11c.16-.43.6-.23.88-.38.1,0,.22.05.25.18A1.21,1.21,0,0,1,148.89,151.87Z"/><path class="cls-67" d="M151.46,150.86a.9.9,0,0,1,1-.2c-.2.34-.51.27-.73.38S151.5,151,151.46,150.86Z"/><path class="cls-49" d="M151.46,150.86l.26.18-.86.25c-.07,0-.09-.09-.07-.14s.05-.07.07-.07C151,150.79,151.24,150.88,151.46,150.86Z"/><path class="cls-124" d="M150.86,151.08v.21l-.81.27-.25-.18A2.2,2.2,0,0,1,150.86,151.08Z"/><path class="cls-89" d="M53.41,80.25c-.1.18-.29.15-.45.14s-.23-.06-.1-.18a.81.81,0,0,1,.38-.16C53.36,80,53.43,80.11,53.41,80.25Z"/><path class="cls-165" d="M57.62,59.8V60l-1.13.48C56.73,60,57.18,59.89,57.62,59.8Z"/><path class="cls-166" d="M53.86,61c.38-.17.62-.4,1.1,0C54.56,61.11,54.32,61.33,53.86,61Z"/><path class="cls-167" d="M49.1,62.77c.22-.25.43-.41.8-.26C49.72,62.9,49.44,62.86,49.1,62.77Z"/><path class="cls-168" d="M50.91,62c.18,0,.32,0,.24.18a.56.56,0,0,1-.34.2c-.1,0-.23-.05-.16-.17A.69.69,0,0,1,50.91,62Z"/><path class="cls-70" d="M70.86,124.48a2.3,2.3,0,0,1,1.39-.32,2.57,2.57,0,0,1-1.39.55q-.09-.08-.06-.15C70.82,124.5,70.84,124.48,70.86,124.48Z"/><path class="cls-169" d="M64.66,126.71c-.24.4-.51.31-.85.27C64.07,126.71,64.28,126.53,64.66,126.71Z"/><path class="cls-161" d="M70.86,124.48v.23c-.22.32-.53.18-.8.25l-.07-.25Z"/><path class="cls-170" d="M65.63,126.14l.31.14c-.09.1-.16.22-.27.27s-.29.06-.28-.13S65.54,126.24,65.63,126.14Z"/><path class="cls-171" d="M70,131.1c.21-.19.46-.38.62-.17s-.16.21-.29.24S70.17,131.14,70,131.1Z"/><path class="cls-172" d="M69.5,131.46a.61.61,0,0,1-.64,0C69.06,131.34,69.23,131.17,69.5,131.46Z"/></g></g></svg>